<svg width="126" height="81" viewBox="0 0 126 81" fill="none" xmlns="http://www.w3.org/2000/svg">
<g clip-path="url(#clip0)">
<path d="M122.964 26.8491H60.8747C59.1979 26.8491 57.8386 28.1998 57.8386 29.8659V40.2737C57.8386 41.9398 59.1979 43.2905 60.8747 43.2905H122.964C124.641 43.2905 126 41.9398 126 40.2737V29.8659C126 28.1998 124.641 26.8491 122.964 26.8491Z" fill="#7F29B5"/>
<path d="M80.415 30.976C80.2544 31.1453 80.105 31.3224 79.9669 31.5074C80.2688 31.6735 80.5371 31.8729 80.7715 32.106C81.0092 32.3357 81.2084 32.5894 81.369 32.8671C81.5328 33.1448 81.6565 33.4431 81.74 33.7623C81.8267 34.0783 81.8701 34.4055 81.8701 34.7437C81.8701 35.0437 81.8396 35.3422 81.7786 35.6389C81.7207 35.9357 81.6275 36.2198 81.4991 36.4911C81.3738 36.7592 81.2132 37.0097 81.0172 37.2428C80.8213 37.4725 80.5869 37.6736 80.3138 37.846C80.0408 38.0151 79.7292 38.1475 79.3791 38.2433C79.029 38.3422 78.6355 38.3917 78.1986 38.3917C77.81 38.3917 77.4407 38.355 77.0904 38.2816C76.7404 38.2113 76.4047 38.1332 76.0835 38.047C75.8362 38.213 75.5648 38.3422 75.2692 38.4348C74.977 38.5273 74.646 38.5736 74.2767 38.5736C74.1258 38.5736 73.9957 38.5593 73.8864 38.5305C73.7772 38.505 73.6874 38.4683 73.6166 38.4204C73.5492 38.3725 73.4978 38.3167 73.4624 38.2529C73.4304 38.1923 73.4143 38.1283 73.4143 38.0614C73.4143 37.9816 73.4336 37.9066 73.4721 37.8363C73.5139 37.763 73.5749 37.699 73.6552 37.6449C73.7387 37.5906 73.8431 37.5475 73.9684 37.5156C74.0968 37.4836 74.2462 37.4677 74.4165 37.4677C74.6509 37.4677 74.8838 37.4933 75.1151 37.5443C75.3495 37.5923 75.5872 37.6481 75.8282 37.7119C76.0627 37.5013 76.2763 37.2491 76.4689 36.9554C76.6649 36.6587 76.8512 36.3364 77.0279 35.9884C77.2078 35.6374 77.3828 35.2704 77.553 34.8874C77.7265 34.5043 77.9096 34.1198 78.1022 33.7337C78.2982 33.3474 78.5086 32.9692 78.7334 32.5991C78.9615 32.2288 79.217 31.8809 79.4996 31.5554C79.2587 31.4533 78.9968 31.375 78.7142 31.3209C78.4347 31.2634 78.1344 31.2346 77.8132 31.2346C77.4214 31.2346 77.044 31.2746 76.681 31.3543C76.318 31.4341 75.9791 31.5442 75.6644 31.6847C75.3495 31.8251 75.0621 31.9894 74.8019 32.1778C74.5418 32.366 74.3184 32.5703 74.1322 32.7905C73.9491 33.0075 73.8061 33.2357 73.7033 33.4751C73.6037 33.7112 73.5539 33.9474 73.5539 34.1836C73.5539 34.3369 73.5845 34.482 73.6455 34.6192C73.7067 34.7565 73.7902 34.8778 73.8961 34.9831C74.0021 35.0852 74.1273 35.1666 74.2718 35.2273C74.4165 35.2879 74.5738 35.3182 74.7441 35.3182C74.8757 35.3182 75.0058 35.3039 75.1344 35.2751C75.266 35.2432 75.3913 35.2049 75.5101 35.1603C75.629 35.1155 75.7398 35.0677 75.8426 35.0165C75.9454 34.9624 76.0354 34.9129 76.1123 34.8683C76.1895 34.8203 76.249 34.782 76.2907 34.7533C76.3357 34.7213 76.3598 34.7039 76.363 34.7007L76.5172 34.9018C76.3662 35.0007 76.2087 35.0963 76.0449 35.1889C75.8843 35.2782 75.7173 35.3597 75.5438 35.4332C75.3705 35.5033 75.1906 35.5608 75.0043 35.6054C74.8179 35.6469 74.6284 35.6677 74.4358 35.6677C74.243 35.6677 74.0599 35.6357 73.8864 35.5719C73.713 35.505 73.5605 35.4123 73.4287 35.2942C73.3003 35.173 73.1975 35.0294 73.1204 34.8634C73.0433 34.6975 73.0047 34.5139 73.0047 34.3129C73.0047 34.083 73.0562 33.8421 73.1589 33.5899C73.2649 33.3379 73.4143 33.089 73.6071 32.8431C73.8029 32.5942 74.0423 32.358 74.325 32.1346C74.6076 31.9112 74.9255 31.715 75.2789 31.5458C75.6354 31.3735 76.0257 31.2377 76.4497 31.1388C76.8768 31.0367 77.3314 30.9857 77.8132 30.9857C78.1633 30.9857 78.4925 31.0192 78.8009 31.0862C79.1125 31.1501 79.4032 31.2426 79.673 31.3638C79.8561 31.1691 80.0536 30.9872 80.2656 30.8181L80.415 30.976ZM81.3448 34.4182C81.3448 34.1213 81.3111 33.8389 81.2437 33.5708C81.1762 33.3027 81.0766 33.0538 80.945 32.824C80.8165 32.5942 80.6575 32.3852 80.468 32.1969C80.2785 32.0085 80.0616 31.8474 79.8175 31.7133C79.5831 32.0485 79.3695 32.4027 79.1767 32.7761C78.9841 33.1496 78.8025 33.5278 78.6323 33.9107C78.462 34.2937 78.295 34.6735 78.1312 35.0502C77.9674 35.4267 77.7956 35.7873 77.6157 36.132C77.439 36.4735 77.2463 36.7927 77.0375 37.0895C76.8287 37.3832 76.5942 37.6384 76.334 37.8555C76.591 37.9258 76.848 37.9864 77.105 38.0374C77.3619 38.0917 77.6269 38.1188 77.8999 38.1188C78.4652 38.1188 78.9631 38.023 79.3935 37.8316C79.824 37.6369 80.1837 37.3735 80.4729 37.0417C80.7619 36.7065 80.9787 36.314 81.1232 35.8639C81.2711 35.414 81.3448 34.9321 81.3448 34.4182ZM74.2574 38.3247C74.5176 38.3247 74.7553 38.2879 74.9706 38.2146C75.1889 38.1443 75.3913 38.0422 75.5777 37.9081C75.3656 37.854 75.1632 37.8092 74.9706 37.7742C74.7778 37.7358 74.5931 37.7167 74.4165 37.7167C74.1659 37.7167 73.9779 37.7502 73.8527 37.8172C73.7306 37.8811 73.6696 37.9592 73.6696 38.0519C73.6696 38.1252 73.713 38.189 73.7997 38.2433C73.8897 38.2976 74.0423 38.3247 74.2574 38.3247ZM85.392 36.2086C85.3439 36.2789 85.2861 36.3747 85.2187 36.496C85.1544 36.6139 85.0788 36.7432 84.9922 36.8836C84.9055 37.0209 84.8091 37.1613 84.7031 37.3049C84.6003 37.4487 84.4863 37.5778 84.3609 37.6927C84.2389 37.8076 84.1056 37.9018 83.9611 37.9752C83.8166 38.0485 83.6623 38.0853 83.4985 38.0853C83.4087 38.0853 83.3235 38.0709 83.2432 38.0422C83.1629 38.0167 83.0923 37.9752 83.0313 37.9178C82.9702 37.8603 82.922 37.7901 82.8867 37.707C82.8514 37.6209 82.8336 37.5205 82.8336 37.4055C82.8336 37.2491 82.8641 37.0863 82.9252 36.9173C82.9895 36.7448 83.0633 36.5789 83.1468 36.4193C83.2304 36.2597 83.3139 36.1145 83.3974 35.9837C83.4809 35.8496 83.5419 35.7427 83.5805 35.6629C83.6191 35.5831 83.6383 35.5145 83.6383 35.457C83.6383 35.4155 83.6238 35.3789 83.5949 35.3469C83.5693 35.3151 83.5356 35.2847 83.4938 35.2559C83.4553 35.2241 83.4135 35.1921 83.3684 35.1603C83.3267 35.1251 83.2915 35.0837 83.2625 35.0357C83.1822 35.1635 83.1003 35.2927 83.0167 35.4235C82.9429 35.5353 82.8626 35.6614 82.7759 35.8018C82.6891 35.9389 82.6056 36.0747 82.5253 36.2086L82.3519 36.0747L83.383 34.4708L83.5227 34.5426C83.5163 34.5618 83.5051 34.5921 83.489 34.6336C83.4761 34.675 83.4697 34.7198 83.4697 34.7677C83.4697 34.8028 83.4745 34.8379 83.4841 34.8729C83.497 34.9049 83.521 34.9352 83.5564 34.9639C83.6848 35.0788 83.7861 35.1683 83.86 35.2321C83.9338 35.2927 83.9867 35.3422 84.0189 35.3805C84.0543 35.4155 84.0751 35.4458 84.0816 35.4715C84.0912 35.4938 84.096 35.5241 84.096 35.5624C84.096 35.6007 84.0897 35.6469 84.0768 35.7012C84.0639 35.7555 84.0414 35.8208 84.0094 35.8974C83.9804 35.9741 83.9386 36.065 83.884 36.1703C83.8327 36.2724 83.7668 36.3922 83.6865 36.5294C83.6383 36.6124 83.5901 36.697 83.5419 36.7832C83.497 36.8661 83.4553 36.9507 83.4167 37.0369C83.3813 37.123 83.3525 37.2093 83.3299 37.2954C83.3074 37.3815 83.2962 37.4645 83.2962 37.5443C83.2962 37.6049 83.3042 37.6544 83.3203 37.6927C83.3396 37.7279 83.3637 37.755 83.3926 37.7742C83.4214 37.7933 83.4519 37.806 83.4841 37.8125C83.5195 37.8188 83.5532 37.822 83.5854 37.822C83.6913 37.822 83.7956 37.7917 83.8985 37.731C84.0045 37.6672 84.1073 37.5858 84.2069 37.4868C84.3096 37.3879 84.4076 37.2762 84.5008 37.1518C84.5972 37.024 84.6887 36.8948 84.7754 36.764C84.8621 36.6331 84.9424 36.5086 85.0163 36.3905C85.0901 36.2693 85.156 36.164 85.2138 36.0747L85.392 36.2086ZM87.3772 33.6139C87.3772 33.6777 87.3611 33.7448 87.3289 33.815C87.2969 33.8819 87.2552 33.9427 87.2037 33.9969C87.1556 34.0512 87.1009 34.0958 87.0399 34.131C86.9789 34.1661 86.9178 34.1836 86.8568 34.1836C86.8022 34.1836 86.7604 34.1645 86.7316 34.1261C86.7026 34.0847 86.6882 34.0352 86.6882 33.9777C86.6882 33.9267 86.6977 33.8661 86.717 33.7958C86.7363 33.7257 86.7653 33.6602 86.8038 33.5996C86.8424 33.5358 86.8888 33.4815 86.9435 33.4368C86.9981 33.3922 87.0607 33.3697 87.1314 33.3697C87.1988 33.3697 87.2567 33.3953 87.3049 33.4463C87.3531 33.4975 87.3772 33.5533 87.3772 33.6139ZM86.4762 34.6767C86.4343 34.7597 86.375 34.8698 86.2978 35.007C86.2241 35.1411 86.1438 35.2896 86.0569 35.4523C85.9703 35.6119 85.8819 35.781 85.792 35.9597C85.702 36.1353 85.6202 36.3076 85.5463 36.4768C85.4757 36.6427 85.4178 36.7991 85.3727 36.9459C85.3278 37.0927 85.3053 37.2171 85.3053 37.3194C85.3053 37.4118 85.3246 37.4757 85.3632 37.5108C85.4017 37.5428 85.4564 37.5586 85.527 37.5586C85.6587 37.5586 85.7872 37.5156 85.9124 37.4295C86.0377 37.3432 86.1614 37.2316 86.2834 37.0943C86.4087 36.9539 86.5307 36.7943 86.6496 36.6156C86.7685 36.4368 86.8873 36.2566 87.0062 36.0747L87.1796 36.2086C87.0865 36.3747 86.9804 36.5518 86.8617 36.74C86.746 36.9284 86.6159 37.1038 86.4714 37.2666C86.3268 37.4262 86.1678 37.5586 85.9944 37.6641C85.8209 37.7693 85.6314 37.822 85.4259 37.822C85.2331 37.822 85.0854 37.7645 84.9826 37.6497C84.8798 37.5348 84.8284 37.3864 84.8284 37.2044C84.8284 36.9906 84.8781 36.7672 84.9777 36.5341C85.0773 36.3012 85.2009 36.0714 85.3488 35.8448C85.4997 35.6151 85.6619 35.3948 85.8353 35.1841C86.012 34.9736 86.1743 34.782 86.322 34.6097L86.4762 34.6767ZM95.3559 38.4778C95.1472 38.4778 94.9351 38.4587 94.72 38.4204C94.5079 38.3854 94.2928 38.3374 94.0743 38.2768C93.8559 38.2193 93.6374 38.1555 93.419 38.0853C93.2007 38.0151 92.9854 37.9464 92.7733 37.8794C92.5197 38.0327 92.2546 38.1523 91.9785 38.2384C91.7022 38.3279 91.4115 38.3725 91.1064 38.3725C90.8462 38.3725 90.647 38.3262 90.5088 38.2338C90.3708 38.1412 90.3018 38.0182 90.3018 37.8651C90.3018 37.664 90.4141 37.5093 90.6389 37.4007C90.8639 37.2922 91.2043 37.2379 91.6604 37.2379C91.8596 37.2379 92.0603 37.2523 92.2627 37.2811C92.465 37.3097 92.6706 37.3464 92.8795 37.3912C93.0818 37.2156 93.2745 37.0177 93.4575 36.7975C93.6406 36.5773 93.819 36.3411 93.9924 36.089C93.8607 36.105 93.7274 36.1177 93.5925 36.1273C93.4575 36.1336 93.3211 36.1368 93.1829 36.1368C92.6786 36.1368 92.229 36.0778 91.834 35.9597C91.4388 35.8385 91.1047 35.674 90.8317 35.4666C90.5586 35.2559 90.3499 35.0102 90.2054 34.7293C90.064 34.4453 89.9933 34.1405 89.9933 33.815C89.9933 33.432 90.0672 33.0921 90.2149 32.7953C90.3628 32.4985 90.5652 32.2496 90.822 32.0485C91.0822 31.8443 91.3873 31.6894 91.7376 31.5841C92.0876 31.4756 92.4635 31.4213 92.8649 31.4213C93.1187 31.4213 93.3499 31.4405 93.5588 31.4788C93.7675 31.5171 93.9474 31.5586 94.0983 31.6032C94.2526 31.6479 94.3731 31.691 94.4598 31.7325C94.5464 31.774 94.5947 31.7963 94.6043 31.7995L94.479 32.015C94.4759 32.015 94.4356 31.9974 94.3585 31.9622C94.2815 31.9241 94.1754 31.8841 94.0406 31.8426C93.9057 31.8011 93.7451 31.7628 93.5588 31.7277C93.3725 31.6927 93.1717 31.675 92.9566 31.675C92.5775 31.675 92.237 31.7308 91.9351 31.8426C91.6363 31.9511 91.3826 32.1011 91.1737 32.2926C90.9682 32.4841 90.8093 32.7092 90.6968 32.9676C90.5876 33.2229 90.533 33.4958 90.533 33.7863C90.533 34.1118 90.6084 34.4038 90.7595 34.6624C90.9104 34.9177 91.1127 35.1346 91.3665 35.3134C91.6202 35.489 91.9141 35.6231 92.2482 35.7155C92.5856 35.8081 92.9388 35.8544 93.3082 35.8544C93.4592 35.8544 93.6069 35.8496 93.7514 35.84C93.8993 35.8305 94.0453 35.8145 94.19 35.7922C94.418 35.4378 94.638 35.0708 94.8501 34.691C95.0652 34.3112 95.2788 33.9394 95.4908 33.5756C95.7028 33.2118 95.9164 32.8671 96.1316 32.5416C96.3469 32.2128 96.57 31.9256 96.8014 31.6799C97.0358 31.4341 97.2816 31.2394 97.5386 31.0958C97.7954 30.949 98.0717 30.8756 98.3673 30.8756C98.4828 30.8756 98.5904 30.8947 98.69 30.9331C98.7896 30.968 98.8763 31.024 98.9502 31.1006C99.0242 31.1739 99.0818 31.2681 99.1237 31.383C99.1655 31.4979 99.1863 31.6319 99.1863 31.7851C99.1863 32.0342 99.1382 32.2974 99.0418 32.5751C98.9454 32.8496 98.8057 33.1256 98.6226 33.4033C98.4395 33.6777 98.2162 33.9491 97.9529 34.2171C97.6895 34.482 97.3907 34.7278 97.0567 34.9544C96.7226 35.181 96.3564 35.3837 95.9581 35.5624C95.5599 35.7378 95.1359 35.8751 94.6863 35.9741C94.4742 36.2646 94.2557 36.5389 94.0309 36.7975C93.8061 37.0529 93.5684 37.2842 93.3179 37.4916C93.562 37.5554 93.8012 37.6241 94.0358 37.6975C94.2702 37.7677 94.4918 37.8316 94.7007 37.889C94.9126 37.9496 95.1086 37.9991 95.2885 38.0374C95.4684 38.0789 95.6273 38.0997 95.7655 38.0997C95.971 38.0997 96.1685 38.0645 96.3581 37.9944C96.5508 37.9241 96.7419 37.7997 96.9315 37.6209L97.129 37.7742C97.1258 37.7773 97.108 37.798 97.076 37.8363C97.0438 37.8715 96.9957 37.9146 96.9315 37.9656C96.8671 38.0199 96.7868 38.0757 96.6906 38.1332C96.5942 38.1938 96.4802 38.2496 96.3484 38.3007C96.22 38.3517 96.0723 38.3934 95.9051 38.4252C95.7413 38.4603 95.5582 38.4778 95.3559 38.4778ZM98.3866 31.1388C98.2067 31.1388 98.0283 31.2028 97.8517 31.3304C97.675 31.458 97.4968 31.6319 97.3169 31.8521C97.137 32.0692 96.954 32.3262 96.7677 32.6229C96.5845 32.9166 96.395 33.2309 96.199 33.5661C96.0032 33.8979 95.7992 34.2411 95.5872 34.5953C95.3752 34.9496 95.1535 35.2974 94.9223 35.6389C95.3078 35.5336 95.6739 35.3964 96.0208 35.2273C96.3709 35.0582 96.6938 34.8683 96.9892 34.6575C97.2879 34.447 97.5562 34.2219 97.7939 33.9825C98.0348 33.74 98.2387 33.4926 98.4058 33.2406C98.576 32.9884 98.7061 32.7395 98.796 32.4936C98.886 32.2447 98.9309 32.007 98.9309 31.7803C98.9309 31.6624 98.9165 31.5634 98.8875 31.4836C98.8587 31.4005 98.8185 31.3335 98.7671 31.2825C98.719 31.2314 98.6612 31.1948 98.5936 31.1724C98.5294 31.1501 98.4603 31.1388 98.3866 31.1388ZM91.0775 38.1237C91.3151 38.1237 91.5399 38.09 91.752 38.023C91.9639 37.9592 92.1696 37.8698 92.3686 37.755C92.1567 37.6944 91.9512 37.6449 91.752 37.6066C91.556 37.5683 91.3665 37.5491 91.1835 37.5491C90.965 37.5491 90.8044 37.5811 90.7016 37.6449C90.602 37.7087 90.5523 37.7822 90.5523 37.8651C90.5523 37.8906 90.5586 37.9178 90.5715 37.9464C90.5876 37.9784 90.6149 38.0071 90.6535 38.0327C90.6921 38.0582 90.745 38.0789 90.8124 38.0948C90.8798 38.114 90.9682 38.1237 91.0775 38.1237ZM101.619 34.6767C101.578 34.7597 101.518 34.8683 101.441 35.0022C101.367 35.1363 101.287 35.2847 101.2 35.4475C101.113 35.6071 101.025 35.7747 100.935 35.9501C100.849 36.1257 100.768 36.2981 100.694 36.4672C100.624 36.6331 100.564 36.7912 100.516 36.9411C100.471 37.088 100.449 37.2124 100.449 37.3146C100.449 37.4167 100.468 37.4836 100.506 37.5156C100.548 37.5443 100.601 37.5586 100.665 37.5586C100.759 37.5586 100.853 37.5316 100.95 37.4773C101.049 37.423 101.146 37.3529 101.239 37.2666C101.335 37.1805 101.428 37.0832 101.518 36.9746C101.608 36.8661 101.692 36.7577 101.769 36.6491C101.849 36.5374 101.921 36.432 101.986 36.3331C102.05 36.2309 102.104 36.1448 102.149 36.0747L102.323 36.2086C102.268 36.3107 102.204 36.4208 102.13 36.539C102.056 36.6571 101.974 36.7768 101.885 36.8981C101.798 37.0161 101.703 37.131 101.6 37.2428C101.497 37.3544 101.388 37.4533 101.273 37.5396C101.16 37.6257 101.041 37.6944 100.916 37.7454C100.791 37.7965 100.662 37.822 100.531 37.822C100.338 37.822 100.197 37.7645 100.107 37.6497C100.017 37.5348 99.9716 37.3864 99.9716 37.2044C99.9716 37.1916 99.9716 37.1645 99.9716 37.123C99.9749 37.0783 99.9796 37.0432 99.9862 37.0177C99.8255 37.2188 99.6713 37.3847 99.5236 37.5156C99.3791 37.6464 99.2378 37.7502 99.0996 37.8268C98.9647 37.9034 98.833 37.9561 98.7044 37.9847C98.5792 38.0167 98.4588 38.0327 98.3431 38.0327C98.2211 38.0327 98.1054 38.0119 97.9963 37.9704C97.8903 37.9321 97.7971 37.8746 97.7168 37.798C97.6333 37.7215 97.5691 37.6272 97.524 37.5156C97.4759 37.4039 97.4517 37.2746 97.4517 37.1278C97.4517 36.9459 97.4935 36.7385 97.5771 36.5055C97.6574 36.2693 97.802 36.0155 98.0107 35.7443C98.1874 35.5113 98.3705 35.315 98.5599 35.1555C98.7527 34.9959 98.9405 34.8683 99.1237 34.7725C99.31 34.6735 99.4866 34.6032 99.6537 34.5618C99.8207 34.5203 99.9701 34.4996 100.102 34.4996C100.397 34.4996 100.621 34.5491 100.771 34.648C100.922 34.7437 101.014 34.8921 101.046 35.0932C101.11 35.0134 101.178 34.9336 101.248 34.8538C101.319 34.774 101.391 34.6927 101.465 34.6097L101.619 34.6767ZM100.14 36.496C100.182 36.4288 100.233 36.3444 100.294 36.2421C100.356 36.1368 100.42 36.0299 100.487 35.9214C100.555 35.8096 100.621 35.7029 100.685 35.6007C100.749 35.4985 100.805 35.4123 100.853 35.3422C100.853 35.3134 100.849 35.2671 100.839 35.2033C100.832 35.1395 100.812 35.0757 100.776 35.0119C100.741 34.9447 100.685 34.8874 100.608 34.8395C100.531 34.7916 100.423 34.7677 100.285 34.7677C100.185 34.7677 100.073 34.7836 99.9476 34.8155C99.8255 34.8443 99.6938 34.8953 99.5524 34.9687C99.4143 35.039 99.2715 35.1331 99.1237 35.2512C98.9759 35.3694 98.8282 35.5161 98.6805 35.6917C98.4588 35.9566 98.287 36.2231 98.1649 36.4911C98.0461 36.756 97.9866 36.9954 97.9866 37.2093C97.9866 37.3912 98.0283 37.5316 98.1118 37.6306C98.1954 37.7294 98.3142 37.7788 98.4684 37.7788C98.6451 37.7788 98.8106 37.7407 98.9646 37.6641C99.1189 37.5843 99.2634 37.4821 99.3984 37.3575C99.5332 37.2331 99.6618 37.0958 99.7838 36.9459C99.9059 36.7927 100.025 36.6427 100.14 36.496ZM106.177 35.3757C106.177 35.5129 106.153 35.6534 106.105 35.797C106.057 35.9374 105.996 36.0793 105.922 36.2231C105.848 36.3634 105.769 36.5023 105.686 36.6396C105.602 36.7768 105.524 36.9093 105.45 37.0369C105.376 37.1645 105.315 37.2874 105.267 37.4055C105.219 37.5205 105.195 37.6257 105.195 37.7215C105.195 37.7948 105.211 37.8443 105.243 37.8698C105.275 37.8954 105.31 37.9081 105.349 37.9081C105.471 37.9081 105.607 37.8491 105.758 37.731C105.909 37.6097 106.062 37.4582 106.216 37.2762C106.373 37.0943 106.529 36.8964 106.683 36.6825C106.838 36.4688 106.977 36.2661 107.102 36.0747L107.276 36.2086C107.25 36.2469 107.204 36.3236 107.136 36.4385C107.069 36.5501 106.985 36.6794 106.886 36.8263C106.786 36.9699 106.674 37.1215 106.548 37.2811C106.426 37.4373 106.295 37.5826 106.153 37.7167C106.012 37.8475 105.866 37.9561 105.715 38.0422C105.567 38.1283 105.418 38.1715 105.267 38.1715C105.18 38.1715 105.101 38.1571 105.031 38.1283C104.96 38.0997 104.899 38.0597 104.848 38.0087C104.799 37.9576 104.761 37.8986 104.732 37.8316C104.703 37.7613 104.689 37.6879 104.689 37.6114C104.689 37.4868 104.716 37.3529 104.771 37.2093C104.828 37.0624 104.899 36.9124 104.982 36.7592C105.066 36.6061 105.157 36.4528 105.257 36.2996C105.357 36.1433 105.448 35.9949 105.532 35.8544C105.615 35.714 105.684 35.5847 105.739 35.4666C105.797 35.3454 105.826 35.2416 105.826 35.1555C105.826 35.0565 105.798 34.9736 105.744 34.9064C105.692 34.8395 105.619 34.806 105.522 34.806C105.419 34.806 105.3 34.8491 105.166 34.9352C105.031 35.0182 104.88 35.1411 104.713 35.3039C104.546 35.4666 104.363 35.6677 104.163 35.9071C103.967 36.1433 103.754 36.4128 103.523 36.7162C103.391 36.8916 103.262 37.0609 103.137 37.2236C103.083 37.2937 103.028 37.3655 102.973 37.439C102.919 37.5125 102.864 37.5858 102.809 37.6592C102.755 37.7294 102.704 37.7965 102.655 37.8603C102.607 37.9273 102.564 37.9847 102.525 38.0327L102.101 37.8603L102.665 37.0895C102.745 36.9811 102.827 36.8645 102.911 36.74C102.994 36.6156 103.076 36.488 103.156 36.357C103.24 36.2231 103.319 36.089 103.393 35.9549C103.466 35.8208 103.535 35.69 103.6 35.5624C103.693 35.3709 103.757 35.2129 103.792 35.0885C103.828 34.9607 103.845 34.8586 103.845 34.782C103.845 34.6959 103.829 34.64 103.797 34.6144C103.765 34.5857 103.72 34.5714 103.662 34.5714C103.601 34.5714 103.531 34.6032 103.45 34.6672C103.373 34.7278 103.293 34.8076 103.209 34.9064C103.126 35.0022 103.041 35.1123 102.954 35.2368C102.871 35.358 102.79 35.4793 102.713 35.6007C102.636 35.722 102.564 35.8368 102.496 35.9454C102.429 36.0539 102.373 36.1416 102.328 36.2086L102.154 36.0747C102.318 35.8193 102.466 35.5863 102.598 35.3757C102.732 35.1618 102.861 34.9784 102.983 34.8251C103.108 34.6719 103.229 34.5538 103.344 34.4708C103.463 34.3847 103.588 34.3415 103.72 34.3415C103.791 34.3415 103.858 34.356 103.923 34.3847C103.99 34.4133 104.048 34.4565 104.096 34.5139C104.147 34.5683 104.187 34.6352 104.216 34.715C104.245 34.7948 104.26 34.8874 104.26 34.9927C104.26 35.0757 104.25 35.1618 104.231 35.2512C104.372 35.114 104.504 35.0007 104.626 34.9113C104.748 34.822 104.86 34.7517 104.963 34.7007C105.066 34.6464 105.161 34.6081 105.247 34.5857C105.334 34.5634 105.413 34.5523 105.484 34.5523C105.545 34.5523 105.615 34.5634 105.696 34.5857C105.776 34.6081 105.851 34.6496 105.922 34.7102C105.993 34.7708 106.052 34.8554 106.1 34.9639C106.152 35.0693 106.177 35.2064 106.177 35.3757ZM108.943 37.6975C108.776 37.8092 108.602 37.8986 108.423 37.9656C108.246 38.0359 108.076 38.0709 107.912 38.0709C107.79 38.0709 107.668 38.0534 107.546 38.0182C107.424 37.9832 107.313 37.9258 107.213 37.846C107.114 37.763 107.033 37.6544 106.972 37.5205C106.908 37.3864 106.876 37.2204 106.876 37.0225C106.876 36.7832 106.919 36.5533 107.006 36.3331C107.093 36.113 107.208 35.9086 107.353 35.7204C107.498 35.5288 107.663 35.3549 107.849 35.1986C108.036 35.0422 108.227 34.9097 108.423 34.8011C108.622 34.6895 108.819 34.6032 109.015 34.5426C109.211 34.482 109.389 34.4517 109.55 34.4517C109.707 34.4517 109.841 34.4693 109.95 34.5043C110.062 34.5363 110.157 34.5778 110.234 34.6289C110.311 34.6767 110.372 34.7293 110.417 34.7868C110.462 34.8443 110.499 34.8986 110.528 34.9496L110.788 34.6097L110.947 34.715C110.947 34.7182 110.922 34.7693 110.87 34.8683C110.819 34.9639 110.751 35.0932 110.668 35.2559C110.584 35.4187 110.486 35.6102 110.374 35.8305C110.265 36.0475 110.149 36.2789 110.027 36.5246C109.908 36.7703 109.786 37.024 109.661 37.2857C109.539 37.5475 109.422 37.8045 109.309 38.0565C109.601 37.8906 109.858 37.731 110.08 37.5778C110.302 37.4247 110.499 37.2699 110.673 37.1135C110.849 36.9571 111.008 36.7943 111.15 36.6252C111.291 36.456 111.428 36.2724 111.559 36.0747L111.737 36.2086C111.609 36.4162 111.469 36.6092 111.318 36.788C111.171 36.9634 110.996 37.139 110.793 37.3146C110.594 37.4868 110.359 37.6656 110.09 37.8508C109.823 38.0327 109.505 38.2338 109.136 38.454C108.831 39.1976 108.537 39.812 108.254 40.2971C107.971 40.7853 107.703 41.1715 107.449 41.4555C107.199 41.7397 106.966 41.9391 106.751 42.054C106.532 42.1688 106.336 42.2263 106.163 42.2263C106.092 42.2263 106.017 42.2168 105.936 42.1976C105.853 42.1817 105.776 42.1482 105.705 42.097C105.635 42.046 105.577 41.9758 105.532 41.8865C105.484 41.797 105.459 41.6822 105.459 41.5418C105.459 41.2736 105.532 41.0087 105.676 40.747C105.818 40.4853 106.025 40.2253 106.298 39.9667C106.568 39.7082 106.899 39.4513 107.29 39.196C107.685 38.9406 108.132 38.6837 108.63 38.4252C108.691 38.2879 108.747 38.1571 108.798 38.0327C108.85 37.9114 108.898 37.7997 108.943 37.6975ZM109.194 37.171C109.28 37.0082 109.365 36.8486 109.449 36.6922C109.536 36.5326 109.624 36.3747 109.714 36.2183C109.807 36.0587 109.905 35.8959 110.008 35.7299C110.114 35.5639 110.231 35.3917 110.359 35.2129C110.353 35.165 110.337 35.1155 110.311 35.0645C110.286 35.0134 110.25 34.9671 110.205 34.9256C110.16 34.8809 110.102 34.8443 110.032 34.8155C109.961 34.7868 109.878 34.7725 109.781 34.7725C109.672 34.7725 109.547 34.7868 109.405 34.8155C109.267 34.8443 109.121 34.8938 108.967 34.9639C108.813 35.0342 108.655 35.1283 108.495 35.2464C108.338 35.3645 108.183 35.5129 108.032 35.6917C107.811 35.9534 107.64 36.2151 107.522 36.4768C107.403 36.7353 107.343 36.9714 107.343 37.1853C107.343 37.3927 107.396 37.5508 107.502 37.6592C107.608 37.7645 107.753 37.8172 107.936 37.8172C108.129 37.8172 108.333 37.7582 108.548 37.6401C108.766 37.522 108.981 37.3655 109.194 37.171ZM106.163 41.9822C106.285 41.9822 106.412 41.9374 106.543 41.8481C106.675 41.7588 106.809 41.6359 106.943 41.4795C107.078 41.3264 107.212 41.1477 107.343 40.9433C107.475 40.739 107.605 40.5205 107.734 40.2874C107.862 40.0577 107.984 39.8215 108.1 39.5789C108.219 39.3364 108.331 39.0987 108.437 38.8656C107.958 39.1145 107.549 39.373 107.208 39.6412C106.871 39.9124 106.595 40.171 106.38 40.4167C106.165 40.6624 106.009 40.8843 105.912 41.0822C105.813 41.2801 105.763 41.4317 105.763 41.537C105.763 41.6679 105.792 41.7747 105.85 41.8577C105.908 41.9408 106.012 41.9822 106.163 41.9822ZM111.925 36.7688C111.919 36.8071 111.914 36.8453 111.911 36.8836C111.908 36.9219 111.906 36.9602 111.906 36.9986C111.906 37.1135 111.922 37.2236 111.954 37.3289C111.99 37.431 112.039 37.522 112.104 37.6018C112.171 37.6784 112.253 37.739 112.349 37.7837C112.449 37.8283 112.561 37.8508 112.687 37.8508C113.107 37.8508 113.514 37.7087 113.906 37.4247C114.297 37.1406 114.688 36.6905 115.076 36.0747L115.24 36.2183C115.028 36.5693 114.813 36.8661 114.595 37.1087C114.376 37.348 114.158 37.5428 113.939 37.6927C113.724 37.8428 113.512 37.9512 113.303 38.0182C113.095 38.0853 112.895 38.1188 112.706 38.1188C112.568 38.1188 112.422 38.0997 112.268 38.0614C112.113 38.023 111.97 37.9592 111.839 37.8698C111.71 37.7805 111.604 37.6609 111.521 37.5108C111.434 37.3609 111.391 37.1741 111.391 36.9507C111.391 36.7114 111.432 36.4815 111.516 36.2613C111.596 36.0379 111.702 35.8305 111.834 35.6389C111.966 35.4475 112.116 35.2736 112.287 35.1171C112.457 34.9576 112.629 34.822 112.802 34.7102C112.979 34.5986 113.151 34.5123 113.318 34.4517C113.485 34.3878 113.633 34.356 113.761 34.356C113.845 34.356 113.93 34.3687 114.016 34.3942C114.103 34.4198 114.18 34.4596 114.248 34.5139C114.318 34.5683 114.375 34.64 114.416 34.7293C114.461 34.8188 114.484 34.9256 114.484 35.0502C114.484 35.2193 114.444 35.3789 114.363 35.5288C114.286 35.6757 114.182 35.813 114.05 35.9406C113.918 36.065 113.766 36.1783 113.592 36.2804C113.419 36.3794 113.238 36.464 113.048 36.5341C112.859 36.6044 112.667 36.6602 112.475 36.7017C112.282 36.7432 112.099 36.7657 111.925 36.7688ZM111.964 36.5629C112.179 36.5406 112.382 36.496 112.571 36.4288C112.76 36.3619 112.934 36.2804 113.091 36.1848C113.249 36.0858 113.388 35.9789 113.511 35.8639C113.636 35.749 113.74 35.6326 113.824 35.5145C113.907 35.3964 113.971 35.2831 114.016 35.1746C114.061 35.066 114.084 34.9687 114.084 34.8826C114.084 34.7965 114.06 34.7278 114.012 34.6767C113.967 34.6257 113.912 34.6001 113.848 34.6001C113.706 34.6001 113.547 34.6512 113.371 34.7533C113.194 34.8523 113.017 34.991 112.841 35.1698C112.664 35.3454 112.497 35.5528 112.34 35.7922C112.186 36.0315 112.06 36.2884 111.964 36.5629ZM118.117 36.2086C118.068 36.2789 118.011 36.3747 117.943 36.496C117.879 36.6139 117.803 36.7432 117.717 36.8836C117.63 37.0209 117.534 37.1613 117.428 37.3049C117.325 37.4487 117.211 37.5778 117.086 37.6927C116.964 37.8076 116.83 37.9018 116.686 37.9752C116.541 38.0485 116.387 38.0853 116.223 38.0853C116.133 38.0853 116.048 38.0709 115.968 38.0422C115.888 38.0167 115.817 37.9752 115.756 37.9178C115.695 37.8603 115.647 37.7901 115.611 37.707C115.576 37.6209 115.558 37.5205 115.558 37.4055C115.558 37.2491 115.589 37.0863 115.65 36.9173C115.714 36.7448 115.788 36.5789 115.871 36.4193C115.955 36.2597 116.038 36.1145 116.122 35.9837C116.205 35.8496 116.266 35.7427 116.305 35.6629C116.344 35.5831 116.363 35.5145 116.363 35.457C116.363 35.4155 116.348 35.3789 116.319 35.3469C116.294 35.3151 116.26 35.2847 116.218 35.2559C116.18 35.2241 116.138 35.1921 116.093 35.1603C116.051 35.1251 116.016 35.0837 115.987 35.0357C115.907 35.1635 115.825 35.2927 115.741 35.4235C115.667 35.5353 115.587 35.6614 115.5 35.8018C115.414 35.9389 115.33 36.0747 115.25 36.2086L115.076 36.0747L116.107 34.4708L116.247 34.5426C116.241 34.5618 116.23 34.5921 116.213 34.6336C116.201 34.675 116.194 34.7198 116.194 34.7677C116.194 34.8028 116.199 34.8379 116.209 34.8729C116.221 34.9049 116.246 34.9352 116.281 34.9639C116.409 35.0788 116.511 35.1683 116.584 35.2321C116.658 35.2927 116.711 35.3422 116.743 35.3805C116.779 35.4155 116.8 35.4458 116.806 35.4715C116.816 35.4938 116.821 35.5241 116.821 35.5624C116.821 35.6007 116.814 35.6469 116.801 35.7012C116.788 35.7555 116.766 35.8208 116.734 35.8974C116.705 35.9741 116.663 36.065 116.609 36.1703C116.557 36.2724 116.491 36.3922 116.411 36.5294C116.363 36.6124 116.315 36.697 116.266 36.7832C116.221 36.8661 116.18 36.9507 116.141 37.0369C116.106 37.123 116.077 37.2093 116.055 37.2954C116.032 37.3815 116.021 37.4645 116.021 37.5443C116.021 37.6049 116.029 37.6544 116.045 37.6927C116.064 37.7279 116.088 37.755 116.117 37.7742C116.146 37.7933 116.177 37.806 116.209 37.8125C116.244 37.8188 116.278 37.822 116.31 37.822C116.416 37.822 116.52 37.7917 116.623 37.731C116.729 37.6672 116.832 37.5858 116.931 37.4868C117.034 37.3879 117.132 37.2762 117.225 37.1518C117.322 37.024 117.413 36.8948 117.5 36.764C117.587 36.6331 117.667 36.5086 117.741 36.3905C117.815 36.2693 117.881 36.164 117.938 36.0747L118.117 36.2086ZM120.102 33.6139C120.102 33.6777 120.086 33.7448 120.054 33.815C120.021 33.8819 119.98 33.9427 119.928 33.9969C119.88 34.0512 119.825 34.0958 119.764 34.131C119.703 34.1661 119.642 34.1836 119.581 34.1836C119.527 34.1836 119.485 34.1645 119.456 34.1261C119.427 34.0847 119.413 34.0352 119.413 33.9777C119.413 33.9267 119.422 33.8661 119.442 33.7958C119.461 33.7257 119.49 33.6602 119.528 33.5996C119.567 33.5358 119.613 33.4815 119.668 33.4368C119.723 33.3922 119.785 33.3697 119.856 33.3697C119.923 33.3697 119.981 33.3953 120.029 33.4463C120.078 33.4975 120.102 33.5533 120.102 33.6139ZM119.201 34.6767C119.159 34.7597 119.099 34.8698 119.022 35.007C118.949 35.1411 118.868 35.2896 118.782 35.4523C118.695 35.6119 118.607 35.781 118.517 35.9597C118.427 36.1353 118.345 36.3076 118.271 36.4768C118.2 36.6427 118.142 36.7991 118.097 36.9459C118.052 37.0927 118.03 37.2171 118.03 37.3194C118.03 37.4118 118.049 37.4757 118.088 37.5108C118.126 37.5428 118.181 37.5586 118.251 37.5586C118.383 37.5586 118.512 37.5156 118.637 37.4295C118.762 37.3432 118.886 37.2316 119.008 37.0943C119.133 36.9539 119.255 36.7943 119.374 36.6156C119.493 36.4368 119.612 36.2566 119.731 36.0747L119.904 36.2086C119.811 36.3747 119.705 36.5518 119.586 36.74C119.47 36.9284 119.34 37.1038 119.196 37.2666C119.051 37.4262 118.892 37.5586 118.719 37.6641C118.546 37.7693 118.356 37.822 118.15 37.822C117.958 37.822 117.81 37.7645 117.707 37.6497C117.604 37.5348 117.553 37.3864 117.553 37.2044C117.553 36.9906 117.603 36.7672 117.702 36.5341C117.802 36.3012 117.926 36.0714 118.073 35.8448C118.224 35.6151 118.386 35.3948 118.56 35.1841C118.736 34.9736 118.899 34.782 119.046 34.6097L119.201 34.6767ZM120.097 36.7688C120.09 36.8071 120.086 36.8453 120.082 36.8836C120.079 36.9219 120.078 36.9602 120.078 36.9986C120.078 37.1135 120.094 37.2236 120.126 37.3289C120.161 37.431 120.211 37.522 120.275 37.6018C120.343 37.6784 120.424 37.739 120.521 37.7837C120.62 37.8283 120.733 37.8508 120.858 37.8508C121.279 37.8508 121.685 37.7087 122.077 37.4247C122.469 37.1406 122.859 36.6905 123.248 36.0747L123.412 36.2183C123.2 36.5693 122.985 36.8661 122.766 37.1087C122.548 37.348 122.329 37.5428 122.111 37.6927C121.896 37.8428 121.684 37.9512 121.475 38.0182C121.266 38.0853 121.067 38.1188 120.877 38.1188C120.739 38.1188 120.593 38.0997 120.439 38.0614C120.285 38.023 120.142 37.9592 120.01 37.8698C119.882 37.7805 119.776 37.6609 119.692 37.5108C119.605 37.3609 119.562 37.1741 119.562 36.9507C119.562 36.7114 119.604 36.4815 119.687 36.2613C119.768 36.0379 119.874 35.8305 120.005 35.6389C120.137 35.4475 120.288 35.2736 120.458 35.1171C120.628 34.9576 120.8 34.822 120.974 34.7102C121.15 34.5986 121.322 34.5123 121.489 34.4517C121.656 34.3878 121.804 34.356 121.933 34.356C122.016 34.356 122.101 34.3687 122.188 34.3942C122.275 34.4198 122.352 34.4596 122.419 34.5139C122.49 34.5683 122.546 34.64 122.588 34.7293C122.633 34.8188 122.655 34.9256 122.655 35.0502C122.655 35.2193 122.615 35.3789 122.535 35.5288C122.458 35.6757 122.353 35.813 122.222 35.9406C122.09 36.065 121.937 36.1783 121.764 36.2804C121.59 36.3794 121.409 36.464 121.219 36.5341C121.03 36.6044 120.839 36.6602 120.646 36.7017C120.453 36.7432 120.27 36.7657 120.097 36.7688ZM120.135 36.5629C120.351 36.5406 120.553 36.496 120.742 36.4288C120.932 36.3619 121.105 36.2804 121.263 36.1848C121.42 36.0858 121.56 35.9789 121.682 35.8639C121.807 35.749 121.912 35.6326 121.995 35.5145C122.079 35.3964 122.143 35.2831 122.188 35.1746C122.233 35.066 122.255 34.9687 122.255 34.8826C122.255 34.7965 122.231 34.7278 122.183 34.6767C122.138 34.6257 122.084 34.6001 122.019 34.6001C121.878 34.6001 121.719 34.6512 121.542 34.7533C121.366 34.8523 121.189 34.991 121.012 35.1698C120.836 35.3454 120.669 35.5528 120.511 35.7922C120.357 36.0315 120.232 36.2884 120.135 36.5629Z" fill="white"/>
<path d="M37.6482 70.4414C56.0093 70.4414 70.894 55.6517 70.894 37.4079C70.894 19.164 56.0093 4.37439 37.6482 4.37439C19.2871 4.37439 4.4024 19.164 4.4024 37.4079C4.4024 55.6517 19.2871 70.4414 37.6482 70.4414Z" fill="url(#paint0_linear)"/>
<g filter="url(#filter0_d)">
<path d="M19.8106 39.0671L1.92193 49.3292C1.19585 49.7457 0.947071 50.6682 1.36627 51.3897L11.6943 69.1642C12.1135 69.8856 13.042 70.1328 13.7681 69.7163L31.6568 59.4542C32.3828 59.0376 32.6316 58.1151 32.2124 57.3937L21.8844 39.6192C21.4652 38.8977 20.5367 38.6505 19.8106 39.0671Z" fill="#B34DF3"/>
</g>
<g filter="url(#filter1_d)">
<path d="M63.4453 3.20533L47.9322 6.76396C47.1152 6.95136 46.6059 7.76129 46.7945 8.57299L50.376 23.9871C50.5646 24.7988 51.3797 25.3049 52.1966 25.1175L67.7098 21.5589C68.5267 21.3715 69.0361 20.5616 68.8475 19.7499L65.266 4.33574C65.0774 3.52403 64.2623 3.01793 63.4453 3.20533Z" fill="#B34DF3"/>
</g>
<g filter="url(#filter2_d)">
<path d="M50.7074 44.1882H24.4713V45.4741H50.7074V44.1882Z" fill="#FFFDF8"/>
<path d="M50.7074 45.5911H24.4713C24.4713 45.5911 34.8246 51.436 35.0599 56.4627C35.1775 57.7486 40.0012 57.7486 40.0012 56.4627C40.1188 51.436 50.7074 45.5911 50.7074 45.5911Z" fill="#FD49A0"/>
<path opacity="0.3" d="M24.4713 44.1882V45.591C24.4713 45.591 34.8246 51.436 35.0599 56.4627C35.0599 57.0472 36.354 57.3979 37.5305 57.3979V44.1882H24.4713Z" fill="#231F20"/>
</g>
<g filter="url(#filter3_d)">
<path d="M44.8249 21.7433C44.8249 21.6264 40.8248 10.6379 37.6482 10.6379C34.4717 10.6379 30.4715 21.6264 30.4715 21.7433L30.1186 21.6264C30.2362 21.1588 34.1187 10.2872 37.6482 10.2872C41.0601 10.2872 45.0602 21.1588 45.1779 21.6264L44.8249 21.7433Z" fill="#FFFDF8"/>
<path d="M39.8836 32.2643C37.4129 30.5108 36.2364 32.1474 36.1188 32.2643L35.8835 32.0305C35.8835 32.0305 37.4129 30.0432 40.1189 32.0305L39.8836 32.2643Z" fill="#FFFDF8"/>
<path d="M44.8249 21.2758C44.8249 21.2758 36.9425 29.4587 38.4719 32.1474C40.0012 34.8361 49.5309 34.8361 51.0604 32.1474C52.7075 29.4587 44.8249 21.2758 44.8249 21.2758Z" fill="#FD49A0"/>
<path d="M30.1186 21.6264L30.4715 21.7433C30.4715 21.6264 34.4717 10.7548 37.6482 10.6379V10.2872C34.1187 10.2872 30.2362 21.1588 30.1186 21.6264Z" fill="#D1D3D4"/>
<path d="M30.3539 21.2758C30.3539 21.2758 22.4713 29.4587 24.0007 32.1474C25.5302 34.8361 35.0599 34.8361 36.5894 32.1474C38.2365 29.4587 30.3539 21.2758 30.3539 21.2758Z" fill="#FD49A0"/>
<path opacity="0.3" d="M30.3539 21.2758C30.3539 21.2758 22.4713 29.4587 24.0007 32.1474C25.5302 34.8361 35.0599 34.8361 36.5894 32.1474C38.2365 29.4587 30.3539 21.2758 30.3539 21.2758Z" fill="#231F20"/>
</g>
<path d="M83.2503 59.085C83.1585 58.7019 82.9356 58.3625 82.62 58.125C82.3044 57.8872 81.9156 57.7661 81.5203 57.7823H73.8055L73.5015 52.478C73.4716 51.9739 73.2491 51.5003 72.8797 51.1543C72.5102 50.8083 72.0217 50.6159 71.5144 50.6168H69.8312V48.6161C69.8312 47.3328 69.3188 46.102 68.4069 45.1944C67.4948 44.2869 66.2581 43.7771 64.9685 43.7771C63.6787 43.7771 62.4419 44.2869 61.5299 45.1944C60.618 46.102 60.1058 47.3328 60.1058 48.6161V50.6168H58.4693C57.958 50.6162 57.4663 50.8117 57.0962 51.1627C56.7261 51.5137 56.5061 51.9931 56.4821 52.5013L55.547 68.7863C55.5593 69.6645 55.9201 70.5023 56.5507 71.1168C57.1815 71.7314 58.0307 72.0728 58.9135 72.0666H69.8312H70.5325H81.0527C81.9307 72.0589 82.7704 71.7081 83.3906 71.0895C83.6036 70.8833 83.7669 70.6317 83.8682 70.3537C83.9694 70.0757 84.006 69.7784 83.975 69.4843L83.2503 59.085ZM61.7656 48.6161C61.8342 47.8149 62.2027 47.0684 62.7979 46.5245C63.3932 45.9805 64.1719 45.6787 64.9802 45.6787C65.7882 45.6787 66.567 45.9805 67.1622 46.5245C67.7575 47.0684 68.1259 47.8149 68.1947 48.6161V50.6168H61.7656V48.6161ZM57.2302 68.5768L58.142 52.5943C58.1475 52.5035 58.1862 52.418 58.2508 52.3537C58.3154 52.2893 58.4014 52.2509 58.4927 52.2453H60.1291V53.1061C60.1291 53.3221 60.2152 53.5292 60.3687 53.6819C60.5222 53.8345 60.7303 53.9203 60.9474 53.9203C61.1643 53.9203 61.3725 53.8345 61.5259 53.6819C61.6794 53.5292 61.7656 53.3221 61.7656 53.1061V52.2453H68.1947V53.1061C68.2276 53.3013 68.3292 53.4787 68.4811 53.6065C68.6329 53.7344 68.8256 53.8045 69.0246 53.8045C69.2235 53.8045 69.4161 53.7344 69.5679 53.6065C69.7199 53.4787 69.8214 53.3013 69.8545 53.1061V52.2453H71.4209C71.512 52.2509 71.598 52.2893 71.6626 52.3537C71.7272 52.418 71.7659 52.5035 71.7716 52.5943L72.169 57.7823H70.2987C69.8518 57.7338 69.4032 57.8559 69.0433 58.1235C68.6832 58.391 68.4385 58.7846 68.3583 59.2246L67.4933 69.4843C67.4689 69.7858 67.517 70.0888 67.6336 70.3682H58.9135C58.6832 70.3655 58.4559 70.3163 58.2452 70.2238C58.0345 70.1314 57.8449 69.9974 57.6876 69.83C57.5304 69.6627 57.4088 69.4654 57.3301 69.25C57.2515 69.0346 57.2175 68.8056 57.2302 68.5768ZM82.2918 69.9727C82.1283 70.1308 81.934 70.2537 81.7209 70.3336C81.5077 70.4137 81.2803 70.4493 81.0527 70.438H71.3274C71.2193 70.4161 71.108 70.4161 71.0001 70.438H70.1117C69.7891 70.3986 69.4867 70.2605 69.2467 70.0425C69.1942 69.9958 69.1523 69.9384 69.124 69.8742C69.0958 69.8099 69.0818 69.7404 69.083 69.6702L69.8312 59.3875H81.5203H81.7307L82.549 69.6238C82.5359 69.6977 82.5059 69.7677 82.4612 69.8282C82.4166 69.8887 82.3586 69.9381 82.2918 69.9727Z" fill="url(#paint1_linear)"/>
<path d="M78.1774 60.8763C77.9603 60.8763 77.7521 60.962 77.5987 61.1148C77.4452 61.2675 77.3591 61.4746 77.3591 61.6906V63.3424C77.2837 63.6908 77.0906 64.0031 76.812 64.2269C76.5333 64.4509 76.186 64.5731 75.8278 64.5731C75.4696 64.5731 75.1222 64.4509 74.8435 64.2269C74.565 64.0031 74.3719 63.6908 74.2966 63.3424V61.6906C74.2966 61.4746 74.2103 61.2675 74.0569 61.1148C73.9034 60.962 73.6953 60.8763 73.4783 60.8763C73.2612 60.8763 73.0531 60.962 72.8996 61.1148C72.7462 61.2675 72.6601 61.4746 72.6601 61.6906V63.3424C72.7283 64.1316 73.0915 64.8668 73.678 65.4024C74.2645 65.938 75.0316 66.2352 75.8278 66.2352C76.6239 66.2352 77.391 65.938 77.9776 65.4024C78.564 64.8668 78.9273 64.1316 78.9956 63.3424V61.6906C78.9956 61.4746 78.9094 61.2675 78.7559 61.1148C78.6024 60.962 78.3943 60.8763 78.1774 60.8763Z" fill="url(#paint2_linear)"/>
</g>
<defs>
<filter id="filter0_d" x="-6.83734" y="38.8647" width="39.2534" height="39.0539" filterUnits="userSpaceOnUse" color-interpolation-filters="sRGB">
<feFlood flood-opacity="0" result="BackgroundImageFix"/>
<feColorMatrix in="SourceAlpha" type="matrix" values="0 0 0 0 0 0 0 0 0 0 0 0 0 0 0 0 0 0 127 0"/>
<feOffset dx="-4" dy="4"/>
<feGaussianBlur stdDeviation="2"/>
<feColorMatrix type="matrix" values="0 0 0 0 0 0 0 0 0 0 0 0 0 0 0 0 0 0 0.25 0"/>
<feBlend mode="normal" in2="BackgroundImageFix" result="effect1_dropShadow"/>
<feBlend mode="normal" in="SourceGraphic" in2="effect1_dropShadow" result="shape"/>
</filter>
<filter id="filter1_d" x="42.7552" y="3.16638" width="30.1315" height="29.9902" filterUnits="userSpaceOnUse" color-interpolation-filters="sRGB">
<feFlood flood-opacity="0" result="BackgroundImageFix"/>
<feColorMatrix in="SourceAlpha" type="matrix" values="0 0 0 0 0 0 0 0 0 0 0 0 0 0 0 0 0 0 127 0"/>
<feOffset dy="4"/>
<feGaussianBlur stdDeviation="2"/>
<feColorMatrix type="matrix" values="0 0 0 0 0 0 0 0 0 0 0 0 0 0 0 0 0 0 0.25 0"/>
<feBlend mode="normal" in2="BackgroundImageFix" result="effect1_dropShadow"/>
<feBlend mode="normal" in="SourceGraphic" in2="effect1_dropShadow" result="shape"/>
</filter>
<filter id="filter2_d" x="20.4713" y="44.1882" width="34.2361" height="21.2389" filterUnits="userSpaceOnUse" color-interpolation-filters="sRGB">
<feFlood flood-opacity="0" result="BackgroundImageFix"/>
<feColorMatrix in="SourceAlpha" type="matrix" values="0 0 0 0 0 0 0 0 0 0 0 0 0 0 0 0 0 0 127 0"/>
<feOffset dy="4"/>
<feGaussianBlur stdDeviation="2"/>
<feColorMatrix type="matrix" values="0 0 0 0 0 0 0 0 0 0 0 0 0 0 0 0 0 0 0.25 0"/>
<feBlend mode="normal" in2="BackgroundImageFix" result="effect1_dropShadow"/>
<feBlend mode="normal" in="SourceGraphic" in2="effect1_dropShadow" result="shape"/>
</filter>
<filter id="filter3_d" x="19.8038" y="10.2872" width="35.4829" height="31.8767" filterUnits="userSpaceOnUse" color-interpolation-filters="sRGB">
<feFlood flood-opacity="0" result="BackgroundImageFix"/>
<feColorMatrix in="SourceAlpha" type="matrix" values="0 0 0 0 0 0 0 0 0 0 0 0 0 0 0 0 0 0 127 0"/>
<feOffset dy="4"/>
<feGaussianBlur stdDeviation="2"/>
<feColorMatrix type="matrix" values="0 0 0 0 0 0 0 0 0 0 0 0 0 0 0 0 0 0 0.25 0"/>
<feBlend mode="normal" in2="BackgroundImageFix" result="effect1_dropShadow"/>
<feBlend mode="normal" in="SourceGraphic" in2="effect1_dropShadow" result="shape"/>
</filter>
<linearGradient id="paint0_linear" x1="61.0265" y1="55.7347" x2="18.6395" y2="13.4548" gradientUnits="userSpaceOnUse">
<stop stop-color="#601390"/>
<stop offset="0.0001" stop-color="#601390"/>
<stop offset="1" stop-color="#B34DF3"/>
</linearGradient>
<linearGradient id="paint1_linear" x1="49.2692" y1="34.425" x2="83.7128" y2="71.3408" gradientUnits="userSpaceOnUse">
<stop stop-color="white"/>
<stop offset="1" stop-color="#C05BFF"/>
</linearGradient>
<linearGradient id="paint2_linear" x1="75.8278" y1="60.9408" x2="75.8278" y2="66.2352" gradientUnits="userSpaceOnUse">
<stop stop-color="#A020F0"/>
<stop offset="1" stop-color="#D090F8" stop-opacity="0.8"/>
</linearGradient>
<clipPath id="clip0">
<rect width="126" height="81" fill="white"/>
</clipPath>
</defs>
</svg>
