<svg width="128" height="105" viewBox="0 0 128 105" fill="none" xmlns="http://www.w3.org/2000/svg">
<path d="M61.3101 97.65C87.7357 97.65 109.158 76.2779 109.158 49.9143C109.158 23.5507 87.7357 2.17859 61.3101 2.17859C34.8845 2.17859 13.4621 23.5507 13.4621 49.9143C13.4621 76.2779 34.8845 97.65 61.3101 97.65Z" fill="url(#paint0_linear)"/>
<g filter="url(#filter0_d)">
<path d="M35.6379 52.3131L9.89213 67.1426C8.84713 67.7445 8.48909 69.0776 9.09242 70.1201L23.9568 95.8055C24.5601 96.848 25.8963 97.2052 26.9413 96.6033L52.6871 81.7739C53.7321 81.1719 54.0901 79.8389 53.4868 78.7963L38.6225 53.1109C38.0191 52.0684 36.6829 51.7112 35.6379 52.3131Z" fill="#B34DF3"/>
</g>
<g filter="url(#filter1_d)">
<path d="M98.4379 0.490367L76.111 5.63284C74.9353 5.90364 74.2022 7.07405 74.4736 8.24702L79.6282 30.5215C79.8996 31.6945 81.0728 32.4258 82.2485 32.155L104.575 27.0126C105.751 26.7418 106.484 25.5714 106.213 24.3984L101.058 2.12389C100.787 0.950917 99.6136 0.219566 98.4379 0.490367Z" fill="#B34DF3"/>
</g>
<g filter="url(#filter2_d)">
<path d="M80.1052 59.7135H42.3457V61.5709H80.1052V59.7135Z" fill="#FFFDF8"/>
<path d="M80.1052 61.7399H42.3457C42.3457 61.7399 57.2463 70.1862 57.5849 77.4501C57.7543 79.3083 64.6966 79.3083 64.6966 77.4501C64.8659 70.1862 80.1052 61.7399 80.1052 61.7399Z" fill="#FD49A0"/>
<path opacity="0.3" d="M42.3457 59.7135V61.7406C42.3457 61.7406 57.2463 70.187 57.5849 77.4509C57.5849 78.2956 59.4475 78.8024 61.1408 78.8024V59.7135H42.3457Z" fill="#231F20"/>
</g>
<g filter="url(#filter3_d)">
<path d="M71.6389 27.2791C71.6389 27.1102 65.8819 11.231 61.3101 11.231C56.7383 11.231 50.9813 27.1102 50.9813 27.2791L50.4733 27.1102C50.6426 26.4345 56.2303 10.7242 61.3101 10.7242C66.2205 10.7242 71.9776 26.4345 72.1469 27.1102L71.6389 27.2791Z" fill="#FFFDF8"/>
<path d="M64.5273 42.4819C60.9714 39.9491 59.2782 42.3131 59.1089 42.4819L58.7702 42.1442C58.7702 42.1442 60.9714 39.2737 64.8659 42.1442L64.5273 42.4819Z" fill="#FFFDF8"/>
<path d="M71.6389 26.6033C71.6389 26.6033 60.2943 38.4282 62.4956 42.3136C64.6966 46.1989 78.4119 46.1989 80.6131 42.3136C82.9837 38.4282 71.6389 26.6033 71.6389 26.6033Z" fill="#FD49A0"/>
<path d="M50.4733 27.1102L50.9813 27.2791C50.9813 27.1102 56.7383 11.4 61.3101 11.231V10.7242C56.2303 10.7242 50.6426 26.4345 50.4733 27.1102Z" fill="#D1D3D4"/>
<path d="M50.8119 26.6033C50.8119 26.6033 39.4671 38.4282 41.6684 42.3136C43.8696 46.1989 57.5849 46.1989 59.7862 42.3136C62.1567 38.4282 50.8119 26.6033 50.8119 26.6033Z" fill="#FD49A0"/>
<path opacity="0.3" d="M50.8119 26.6033C50.8119 26.6033 39.4671 38.4282 41.6684 42.3136C43.8696 46.1989 57.5849 46.1989 59.7862 42.3136C62.1567 38.4282 50.8119 26.6033 50.8119 26.6033Z" fill="#231F20"/>
</g>
<path d="M126.942 81.2405C126.809 80.6869 126.489 80.1965 126.034 79.8532C125.58 79.5096 125.021 79.3346 124.452 79.3579H113.348L112.911 71.693C112.868 70.9645 112.548 70.2801 112.016 69.78C111.484 69.28 110.781 69.0021 110.051 69.0034H107.628V66.1122C107.628 64.2577 106.891 62.4791 105.579 61.1676C104.266 59.8562 102.486 59.1195 100.63 59.1195C98.7737 59.1195 96.9937 59.8562 95.6811 61.1676C94.3686 62.4791 93.6315 64.2577 93.6315 66.1122V69.0034H91.2762C90.5404 69.0025 89.8327 69.285 89.3 69.7923C88.7674 70.2995 88.4508 70.9922 88.4163 71.7265L87.0704 95.2596C87.0881 96.5286 87.6074 97.7392 88.515 98.6272C89.4228 99.5155 90.645 100.009 91.9155 99.9998H107.628H108.638H123.779C125.042 99.9887 126.251 99.4817 127.143 98.5878C127.45 98.2898 127.685 97.9263 127.831 97.5245C127.977 97.1228 128.029 96.6932 127.985 96.2681L126.942 81.2405ZM96.0204 66.1122C96.1191 64.9544 96.6494 63.8756 97.5061 63.0896C98.3628 62.3036 99.4836 61.8675 100.647 61.8675C101.81 61.8675 102.931 62.3036 103.787 63.0896C104.644 63.8756 105.174 64.9544 105.273 66.1122V69.0034H96.0204V66.1122ZM89.493 94.9568L90.8052 71.861C90.813 71.7298 90.8688 71.6062 90.9618 71.5134C91.0547 71.4203 91.1786 71.3647 91.3099 71.3566H93.6651V72.6006C93.6651 72.9127 93.789 73.212 94.0099 73.4326C94.2308 73.6532 94.5303 73.7772 94.8428 73.7772C95.155 73.7772 95.4545 73.6532 95.6754 73.4326C95.8963 73.212 96.0204 72.9127 96.0204 72.6006V71.3566H105.273V72.6006C105.321 72.8827 105.467 73.139 105.685 73.3236C105.904 73.5084 106.181 73.6098 106.468 73.6098C106.754 73.6098 107.031 73.5084 107.25 73.3236C107.468 73.139 107.614 72.8827 107.662 72.6006V71.3566H109.916C110.048 71.3647 110.171 71.4203 110.264 71.5134C110.357 71.6062 110.413 71.7298 110.421 71.861L110.993 79.3579H108.301C107.658 79.288 107.013 79.4643 106.495 79.851C105.976 80.2377 105.624 80.8063 105.509 81.4422L104.264 96.2681C104.229 96.7039 104.298 97.1418 104.466 97.5455H91.9155C91.5841 97.5415 91.257 97.4705 90.9537 97.3369C90.6505 97.2032 90.3776 97.0097 90.1513 96.7677C89.9249 96.526 89.7499 96.2409 89.6367 95.9296C89.5235 95.6184 89.4746 95.2875 89.493 94.9568ZM125.562 96.9739C125.327 97.2024 125.047 97.38 124.74 97.4955C124.434 97.6113 124.106 97.6627 123.779 97.6464H109.782C109.626 97.6148 109.466 97.6148 109.311 97.6464H108.032C107.568 97.5895 107.133 97.3898 106.787 97.0749C106.712 97.0073 106.651 96.9245 106.611 96.8316C106.57 96.7387 106.55 96.6383 106.552 96.5369L107.628 81.6776H124.452H124.755L125.932 96.4698C125.913 96.5766 125.87 96.6777 125.806 96.7651C125.742 96.8525 125.658 96.924 125.562 96.9739Z" fill="url(#paint1_linear)"/>
<path d="M119.64 83.8292C119.328 83.8292 119.028 83.953 118.808 84.1738C118.587 84.3944 118.463 84.6937 118.463 85.0058V87.3928C118.354 87.8963 118.076 88.3475 117.675 88.671C117.274 88.9947 116.774 89.1713 116.259 89.1713C115.743 89.1713 115.243 88.9947 114.842 88.671C114.441 88.3475 114.164 87.8963 114.055 87.3928V85.0058C114.055 84.6937 113.931 84.3944 113.71 84.1738C113.489 83.953 113.19 83.8292 112.878 83.8292C112.565 83.8292 112.266 83.953 112.045 84.1738C111.824 84.3944 111.7 84.6937 111.7 85.0058V87.3928C111.798 88.5333 112.321 89.5956 113.165 90.3697C114.009 91.1437 115.113 91.5731 116.259 91.5731C117.405 91.5731 118.509 91.1437 119.353 90.3697C120.197 89.5956 120.72 88.5333 120.818 87.3928V85.0058C120.818 84.6937 120.694 84.3944 120.473 84.1738C120.252 83.953 119.953 83.8292 119.64 83.8292Z" fill="url(#paint2_linear)"/>
<defs>
<filter id="filter0_d" x="0.799339" y="52.0208" width="52.9805" height="52.875" filterUnits="userSpaceOnUse" color-interpolation-filters="sRGB">
<feFlood flood-opacity="0" result="BackgroundImageFix"/>
<feColorMatrix in="SourceAlpha" type="matrix" values="0 0 0 0 0 0 0 0 0 0 0 0 0 0 0 0 0 0 127 0"/>
<feOffset dx="-4" dy="4"/>
<feGaussianBlur stdDeviation="2"/>
<feColorMatrix type="matrix" values="0 0 0 0 0 0 0 0 0 0 0 0 0 0 0 0 0 0 0.25 0"/>
<feBlend mode="normal" in2="BackgroundImageFix" result="effect1_dropShadow"/>
<feBlend mode="normal" in="SourceGraphic" in2="effect1_dropShadow" result="shape"/>
</filter>
<filter id="filter1_d" x="70.4172" y="0.43396" width="39.8521" height="39.7774" filterUnits="userSpaceOnUse" color-interpolation-filters="sRGB">
<feFlood flood-opacity="0" result="BackgroundImageFix"/>
<feColorMatrix in="SourceAlpha" type="matrix" values="0 0 0 0 0 0 0 0 0 0 0 0 0 0 0 0 0 0 127 0"/>
<feOffset dy="4"/>
<feGaussianBlur stdDeviation="2"/>
<feColorMatrix type="matrix" values="0 0 0 0 0 0 0 0 0 0 0 0 0 0 0 0 0 0 0.25 0"/>
<feBlend mode="normal" in2="BackgroundImageFix" result="effect1_dropShadow"/>
<feBlend mode="normal" in="SourceGraphic" in2="effect1_dropShadow" result="shape"/>
</filter>
<filter id="filter2_d" x="38.3457" y="59.7135" width="45.7595" height="27.1303" filterUnits="userSpaceOnUse" color-interpolation-filters="sRGB">
<feFlood flood-opacity="0" result="BackgroundImageFix"/>
<feColorMatrix in="SourceAlpha" type="matrix" values="0 0 0 0 0 0 0 0 0 0 0 0 0 0 0 0 0 0 127 0"/>
<feOffset dy="4"/>
<feGaussianBlur stdDeviation="2"/>
<feColorMatrix type="matrix" values="0 0 0 0 0 0 0 0 0 0 0 0 0 0 0 0 0 0 0.25 0"/>
<feBlend mode="normal" in2="BackgroundImageFix" result="effect1_dropShadow"/>
<feBlend mode="normal" in="SourceGraphic" in2="effect1_dropShadow" result="shape"/>
</filter>
<filter id="filter3_d" x="37.385" y="10.7242" width="47.5539" height="42.5033" filterUnits="userSpaceOnUse" color-interpolation-filters="sRGB">
<feFlood flood-opacity="0" result="BackgroundImageFix"/>
<feColorMatrix in="SourceAlpha" type="matrix" values="0 0 0 0 0 0 0 0 0 0 0 0 0 0 0 0 0 0 127 0"/>
<feOffset dy="4"/>
<feGaussianBlur stdDeviation="2"/>
<feColorMatrix type="matrix" values="0 0 0 0 0 0 0 0 0 0 0 0 0 0 0 0 0 0 0.25 0"/>
<feBlend mode="normal" in2="BackgroundImageFix" result="effect1_dropShadow"/>
<feBlend mode="normal" in="SourceGraphic" in2="effect1_dropShadow" result="shape"/>
</filter>
<linearGradient id="paint0_linear" x1="94.9566" y1="76.3978" x2="33.7055" y2="15.5489" gradientUnits="userSpaceOnUse">
<stop stop-color="#601390"/>
<stop offset="0.0001" stop-color="#601390"/>
<stop offset="1" stop-color="#B34DF3"/>
</linearGradient>
<linearGradient id="paint1_linear" x1="78.0353" y1="45.6051" x2="127.822" y2="98.7495" gradientUnits="userSpaceOnUse">
<stop stop-color="white"/>
<stop offset="1" stop-color="#C05BFF"/>
</linearGradient>
<linearGradient id="paint2_linear" x1="116.259" y1="83.9223" x2="116.259" y2="91.5731" gradientUnits="userSpaceOnUse">
<stop stop-color="#A020F0"/>
<stop offset="1" stop-color="#D090F8" stop-opacity="0.8"/>
</linearGradient>
</defs>
</svg>
