<svg width="56" height="56" viewBox="0 0 56 56" fill="none" xmlns="http://www.w3.org/2000/svg">
<path d="M53.4869 27.797C50.4629 28.413 46.8229 28.805 43.5749 28.805C40.3269 28.805 36.6869 28.469 33.6629 27.797L33.3829 29.421C38.8149 30.821 41.2789 33.285 42.2309 36.533C42.2869 36.701 42.3429 36.701 42.5109 36.701H44.5269C44.6949 36.701 44.7509 36.645 44.8069 36.533C45.7589 33.285 48.2229 30.821 53.6549 29.421L53.4869 27.797Z" fill="#1C2B36"/>
<path d="M52.8149 7.86096L53.2069 1.25296C53.2069 1.08496 53.0949 0.972962 52.9269 0.916962L52.4229 0.860962C52.2549 0.860962 52.1429 0.972962 52.0869 1.14096C52.0309 2.42896 51.6949 7.63696 51.6389 7.63696C44.9749 9.37296 45.2549 13.629 43.8549 14.637H43.1829C41.7829 13.685 42.0629 9.37296 35.3989 7.63696C35.3429 7.63696 35.0629 2.42896 34.9509 1.14096C34.9509 0.972962 34.7829 0.860962 34.6149 0.860962L34.1109 0.916962C33.9429 0.916962 33.8309 1.08496 33.8309 1.25296L34.2229 7.86096C33.6069 8.75696 30.2469 13.797 34.3909 17.269C34.9509 17.269 35.8469 17.885 38.1429 17.437C39.9909 17.045 40.6069 15.925 42.6229 15.701L41.5029 18.725L42.1749 19.957L43.3509 15.757H43.9109L44.5829 18.389L45.7029 18.893L44.4709 15.589C46.4309 15.869 47.0469 16.989 48.8949 17.325C51.1909 17.773 52.0869 17.157 52.6469 17.157C56.8469 13.797 53.4309 8.70096 52.8149 7.86096Z" fill="#1C2B36"/>
<path d="M30.765 43.9425C26.985 44.7125 22.435 45.2025 18.375 45.2025C14.315 45.2025 9.76501 44.7825 5.98501 43.9425L5.63501 45.9725C12.425 47.7225 15.505 50.8025 16.695 54.8625C16.765 55.0725 16.835 55.0725 17.045 55.0725H19.565C19.775 55.0725 19.845 55.0025 19.915 54.8625C21.105 50.8025 24.185 47.7225 30.975 45.9725L30.765 43.9425Z" fill="#1C2B36"/>
<path d="M29.925 19.2325L30.415 10.9725C30.415 10.7625 30.275 10.6225 30.065 10.5525L29.435 10.4825C29.225 10.4825 29.085 10.6225 29.015 10.8325C28.945 12.4425 28.525 18.9525 28.455 18.9525C20.125 21.1225 20.475 26.4425 18.725 27.7025H17.885C16.135 26.5125 16.485 21.1225 8.155 18.9525C8.085 18.9525 7.735 12.4425 7.595 10.8325C7.595 10.6225 7.385 10.4825 7.175 10.4825L6.545 10.5525C6.335 10.5525 6.195 10.7625 6.195 10.9725L6.685 19.2325C5.915 20.3525 1.715 26.6525 6.895 30.9925C7.595 30.9925 8.715 31.7625 11.585 31.2025C13.895 30.7125 14.665 29.3125 17.185 29.0325L15.785 32.8125L16.625 34.3525L18.095 29.1025H18.795L19.635 32.3925L21.035 33.0225L19.495 28.8925C21.945 29.2425 22.715 30.6425 25.025 31.0625C27.895 31.6225 29.015 30.8525 29.715 30.8525C34.965 26.6525 30.695 20.2825 29.925 19.2325Z" fill="#1C2B36"/>
</svg>
