<svg width="333" height="139" viewBox="0 0 333 139" fill="none" xmlns="http://www.w3.org/2000/svg">
<g filter="url(#filter0_d)">
<path d="M4.188 27.328C4.188 24.832 4.728 22.612 5.808 20.668C6.888 18.7 8.388 17.176 10.308 16.096C12.252 14.992 14.448 14.44 16.896 14.44C19.896 14.44 22.464 15.232 24.6 16.816C26.736 18.4 28.164 20.56 28.884 23.296H22.116C21.612 22.24 20.892 21.436 19.956 20.884C19.044 20.332 18 20.056 16.824 20.056C14.928 20.056 13.392 20.716 12.216 22.036C11.04 23.356 10.452 25.12 10.452 27.328C10.452 29.536 11.04 31.3 12.216 32.62C13.392 33.94 14.928 34.6 16.824 34.6C18 34.6 19.044 34.324 19.956 33.772C20.892 33.22 21.612 32.416 22.116 31.36H28.884C28.164 34.096 26.736 36.256 24.6 37.84C22.464 39.4 19.896 40.18 16.896 40.18C14.448 40.18 12.252 39.64 10.308 38.56C8.388 37.456 6.888 35.932 5.808 33.988C4.728 32.044 4.188 29.824 4.188 27.328ZM41.7979 40.288C39.8299 40.288 38.0539 39.868 36.4699 39.028C34.9099 38.188 33.6739 36.988 32.7619 35.428C31.8739 33.868 31.4299 32.044 31.4299 29.956C31.4299 27.892 31.8859 26.08 32.7979 24.52C33.7099 22.936 34.9579 21.724 36.5419 20.884C38.1259 20.044 39.9019 19.624 41.8699 19.624C43.8379 19.624 45.6139 20.044 47.1979 20.884C48.7819 21.724 50.0299 22.936 50.9419 24.52C51.8539 26.08 52.3099 27.892 52.3099 29.956C52.3099 32.02 51.8419 33.844 50.9059 35.428C49.9939 36.988 48.7339 38.188 47.1259 39.028C45.5419 39.868 43.7659 40.288 41.7979 40.288ZM41.7979 34.96C42.9739 34.96 43.9699 34.528 44.7859 33.664C45.6259 32.8 46.0459 31.564 46.0459 29.956C46.0459 28.348 45.6379 27.112 44.8219 26.248C44.0299 25.384 43.0459 24.952 41.8699 24.952C40.6699 24.952 39.6739 25.384 38.8819 26.248C38.0899 27.088 37.6939 28.324 37.6939 29.956C37.6939 31.564 38.0779 32.8 38.8459 33.664C39.6379 34.528 40.6219 34.96 41.7979 34.96ZM67.8158 19.696C70.1678 19.696 72.0398 20.464 73.4318 22C74.8478 23.512 75.5558 25.6 75.5558 28.264V40H69.4358V29.092C69.4358 27.748 69.0878 26.704 68.3918 25.96C67.6958 25.216 66.7598 24.844 65.5838 24.844C64.4078 24.844 63.4718 25.216 62.7758 25.96C62.0798 26.704 61.7318 27.748 61.7318 29.092V40H55.5758V19.912H61.7318V22.576C62.3558 21.688 63.1958 20.992 64.2518 20.488C65.3078 19.96 66.4958 19.696 67.8158 19.696ZM82.8936 17.824C81.8136 17.824 80.9256 17.512 80.2296 16.888C79.5576 16.24 79.2216 15.448 79.2216 14.512C79.2216 13.552 79.5576 12.76 80.2296 12.136C80.9256 11.488 81.8136 11.164 82.8936 11.164C83.9496 11.164 84.8136 11.488 85.4856 12.136C86.1816 12.76 86.5296 13.552 86.5296 14.512C86.5296 15.448 86.1816 16.24 85.4856 16.888C84.8136 17.512 83.9496 17.824 82.8936 17.824ZM85.9896 42.592C85.9896 45.064 85.3656 46.84 84.1176 47.92C82.8696 49.024 81.1296 49.576 78.8976 49.576H76.4856V44.356H77.9616C78.6336 44.356 79.1136 44.224 79.4016 43.96C79.6896 43.696 79.8336 43.264 79.8336 42.664V19.912H85.9896V42.592ZM110.252 19.912V40H104.096V37.264C103.472 38.152 102.62 38.872 101.54 39.424C100.484 39.952 99.3076 40.216 98.0116 40.216C96.4756 40.216 95.1196 39.88 93.9436 39.208C92.7676 38.512 91.8556 37.516 91.2076 36.22C90.5596 34.924 90.2356 33.4 90.2356 31.648V19.912H96.3556V30.82C96.3556 32.164 96.7036 33.208 97.3996 33.952C98.0956 34.696 99.0316 35.068 100.208 35.068C101.408 35.068 102.356 34.696 103.052 33.952C103.748 33.208 104.096 32.164 104.096 30.82V19.912H110.252ZM126.913 19.696C129.265 19.696 131.137 20.464 132.529 22C133.945 23.512 134.653 25.6 134.653 28.264V40H128.533V29.092C128.533 27.748 128.185 26.704 127.489 25.96C126.793 25.216 125.857 24.844 124.681 24.844C123.505 24.844 122.569 25.216 121.873 25.96C121.177 26.704 120.829 27.748 120.829 29.092V40H114.673V19.912H120.829V22.576C121.453 21.688 122.293 20.992 123.349 20.488C124.405 19.96 125.593 19.696 126.913 19.696ZM150.127 34.78V40H146.995C144.763 40 143.023 39.46 141.775 38.38C140.527 37.276 139.903 35.488 139.903 33.016V25.024H137.455V19.912H139.903V15.016H146.059V19.912H150.091V25.024H146.059V33.088C146.059 33.688 146.203 34.12 146.491 34.384C146.779 34.648 147.259 34.78 147.931 34.78H150.127ZM162.7 40.288C160.732 40.288 158.956 39.868 157.372 39.028C155.812 38.188 154.576 36.988 153.664 35.428C152.776 33.868 152.332 32.044 152.332 29.956C152.332 27.892 152.788 26.08 153.7 24.52C154.612 22.936 155.86 21.724 157.444 20.884C159.028 20.044 160.804 19.624 162.772 19.624C164.74 19.624 166.516 20.044 168.1 20.884C169.684 21.724 170.932 22.936 171.844 24.52C172.756 26.08 173.212 27.892 173.212 29.956C173.212 32.02 172.744 33.844 171.808 35.428C170.896 36.988 169.636 38.188 168.028 39.028C166.444 39.868 164.668 40.288 162.7 40.288ZM162.7 34.96C163.876 34.96 164.872 34.528 165.688 33.664C166.528 32.8 166.948 31.564 166.948 29.956C166.948 28.348 166.54 27.112 165.724 26.248C164.932 25.384 163.948 24.952 162.772 24.952C161.572 24.952 160.576 25.384 159.784 26.248C158.992 27.088 158.596 28.324 158.596 29.956C158.596 31.564 158.98 32.8 159.748 33.664C160.54 34.528 161.524 34.96 162.7 34.96ZM184.65 40.288C182.898 40.288 181.338 39.988 179.97 39.388C178.602 38.788 177.522 37.972 176.73 36.94C175.938 35.884 175.494 34.708 175.398 33.412H181.482C181.554 34.108 181.878 34.672 182.454 35.104C183.03 35.536 183.738 35.752 184.578 35.752C185.346 35.752 185.934 35.608 186.342 35.32C186.774 35.008 186.99 34.612 186.99 34.132C186.99 33.556 186.69 33.136 186.09 32.872C185.49 32.584 184.518 32.272 183.174 31.936C181.734 31.6 180.534 31.252 179.574 30.892C178.614 30.508 177.786 29.92 177.09 29.128C176.394 28.312 176.046 27.22 176.046 25.852C176.046 24.7 176.358 23.656 176.982 22.72C177.63 21.76 178.566 21.004 179.79 20.452C181.038 19.9 182.514 19.624 184.218 19.624C186.738 19.624 188.718 20.248 190.158 21.496C191.622 22.744 192.462 24.4 192.678 26.464H186.99C186.894 25.768 186.582 25.216 186.054 24.808C185.55 24.4 184.878 24.196 184.038 24.196C183.318 24.196 182.766 24.34 182.382 24.628C181.998 24.892 181.806 25.264 181.806 25.744C181.806 26.32 182.106 26.752 182.706 27.04C183.33 27.328 184.29 27.616 185.586 27.904C187.074 28.288 188.286 28.672 189.222 29.056C190.158 29.416 190.974 30.016 191.67 30.856C192.39 31.672 192.762 32.776 192.786 34.168C192.786 35.344 192.45 36.4 191.778 37.336C191.13 38.248 190.182 38.968 188.934 39.496C187.71 40.024 186.282 40.288 184.65 40.288Z" fill="url(#paint0_linear)"/>
</g>
<g filter="url(#filter1_d)">
<path d="M110.864 69.086C110.864 68.066 111.068 67.178 111.476 66.422C111.884 65.654 112.448 65.066 113.168 64.658C113.888 64.238 114.71 64.028 115.634 64.028C116.846 64.028 117.842 64.328 118.622 64.928C119.414 65.528 119.924 66.344 120.152 67.376H118.802C118.634 66.668 118.268 66.116 117.704 65.72C117.152 65.312 116.462 65.108 115.634 65.108C114.974 65.108 114.38 65.258 113.852 65.558C113.324 65.858 112.904 66.308 112.592 66.908C112.292 67.496 112.142 68.222 112.142 69.086C112.142 69.95 112.292 70.682 112.592 71.282C112.904 71.882 113.324 72.332 113.852 72.632C114.38 72.932 114.974 73.082 115.634 73.082C116.462 73.082 117.152 72.884 117.704 72.488C118.268 72.08 118.634 71.516 118.802 70.796H120.152C119.924 71.804 119.414 72.614 118.622 73.226C117.83 73.838 116.834 74.144 115.634 74.144C114.71 74.144 113.888 73.94 113.168 73.532C112.448 73.112 111.884 72.524 111.476 71.768C111.068 71 110.864 70.106 110.864 69.086ZM126.781 74.144C125.857 74.144 125.023 73.94 124.279 73.532C123.547 73.112 122.965 72.524 122.533 71.768C122.113 71 121.903 70.106 121.903 69.086C121.903 68.066 122.119 67.178 122.551 66.422C122.983 65.654 123.571 65.066 124.315 64.658C125.059 64.238 125.893 64.028 126.817 64.028C127.741 64.028 128.575 64.238 129.319 64.658C130.075 65.066 130.663 65.654 131.083 66.422C131.515 67.178 131.731 68.066 131.731 69.086C131.731 70.094 131.515 70.982 131.083 71.75C130.651 72.518 130.057 73.112 129.301 73.532C128.545 73.94 127.705 74.144 126.781 74.144ZM126.781 73.046C127.429 73.046 128.029 72.902 128.581 72.614C129.133 72.314 129.577 71.87 129.913 71.282C130.261 70.682 130.435 69.95 130.435 69.086C130.435 68.222 130.267 67.496 129.931 66.908C129.595 66.308 129.151 65.864 128.599 65.576C128.047 65.276 127.447 65.126 126.799 65.126C126.151 65.126 125.551 65.276 124.999 65.576C124.447 65.864 124.003 66.308 123.667 66.908C123.343 67.496 123.181 68.222 123.181 69.086C123.181 69.95 123.343 70.682 123.667 71.282C124.003 71.87 124.441 72.314 124.981 72.614C125.533 72.902 126.133 73.046 126.781 73.046ZM145.728 63.992C146.88 63.992 147.816 64.358 148.536 65.09C149.268 65.81 149.634 66.86 149.634 68.24V74H148.392V68.384C148.392 67.316 148.134 66.5 147.618 65.936C147.102 65.372 146.4 65.09 145.512 65.09C144.588 65.09 143.85 65.396 143.298 66.008C142.746 66.62 142.47 67.508 142.47 68.672V74H141.228V68.384C141.228 67.316 140.97 66.5 140.454 65.936C139.938 65.372 139.23 65.09 138.33 65.09C137.406 65.09 136.668 65.396 136.116 66.008C135.564 66.62 135.288 67.508 135.288 68.672V74H134.028V64.172H135.288V65.864C135.6 65.252 136.044 64.79 136.62 64.478C137.196 64.154 137.838 63.992 138.546 63.992C139.398 63.992 140.142 64.196 140.778 64.604C141.426 65.012 141.894 65.612 142.182 66.404C142.446 65.624 142.896 65.03 143.532 64.622C144.18 64.202 144.912 63.992 145.728 63.992ZM156.796 69.068C156.796 68.06 157 67.178 157.408 66.422C157.816 65.654 158.374 65.066 159.082 64.658C159.802 64.238 160.612 64.028 161.512 64.028C162.376 64.028 163.156 64.238 163.852 64.658C164.548 65.078 165.058 65.624 165.382 66.296V60.68H166.642V74H165.382V71.804C165.082 72.488 164.59 73.052 163.906 73.496C163.222 73.928 162.418 74.144 161.494 74.144C160.594 74.144 159.784 73.934 159.064 73.514C158.356 73.094 157.798 72.5 157.39 71.732C156.994 70.964 156.796 70.076 156.796 69.068ZM165.382 69.086C165.382 68.294 165.22 67.598 164.896 66.998C164.572 66.398 164.128 65.936 163.564 65.612C163.012 65.288 162.4 65.126 161.728 65.126C161.032 65.126 160.408 65.282 159.856 65.594C159.304 65.906 158.866 66.362 158.542 66.962C158.23 67.55 158.074 68.252 158.074 69.068C158.074 69.872 158.23 70.58 158.542 71.192C158.866 71.792 159.304 72.254 159.856 72.578C160.408 72.89 161.032 73.046 161.728 73.046C162.4 73.046 163.012 72.884 163.564 72.56C164.128 72.236 164.572 71.774 164.896 71.174C165.22 70.574 165.382 69.878 165.382 69.086ZM178.41 68.582C178.41 69.014 178.398 69.344 178.374 69.572H170.22C170.256 70.316 170.436 70.952 170.76 71.48C171.084 72.008 171.51 72.41 172.038 72.686C172.566 72.95 173.142 73.082 173.766 73.082C174.582 73.082 175.266 72.884 175.818 72.488C176.382 72.092 176.754 71.558 176.934 70.886H178.266C178.026 71.846 177.51 72.632 176.718 73.244C175.938 73.844 174.954 74.144 173.766 74.144C172.842 74.144 172.014 73.94 171.282 73.532C170.55 73.112 169.974 72.524 169.554 71.768C169.146 71 168.942 70.106 168.942 69.086C168.942 68.066 169.146 67.172 169.554 66.404C169.962 65.636 170.532 65.048 171.264 64.64C171.996 64.232 172.83 64.028 173.766 64.028C174.702 64.028 175.518 64.232 176.214 64.64C176.922 65.048 177.462 65.6 177.834 66.296C178.218 66.98 178.41 67.742 178.41 68.582ZM177.132 68.546C177.144 67.814 176.994 67.19 176.682 66.674C176.382 66.158 175.968 65.768 175.44 65.504C174.912 65.24 174.336 65.108 173.712 65.108C172.776 65.108 171.978 65.408 171.318 66.008C170.658 66.608 170.292 67.454 170.22 68.546H177.132ZM184.099 74.144C182.971 74.144 182.047 73.886 181.327 73.37C180.619 72.842 180.223 72.128 180.139 71.228H181.435C181.495 71.78 181.753 72.23 182.209 72.578C182.677 72.914 183.301 73.082 184.081 73.082C184.765 73.082 185.299 72.92 185.683 72.596C186.079 72.272 186.277 71.87 186.277 71.39C186.277 71.054 186.169 70.778 185.953 70.562C185.737 70.346 185.461 70.178 185.125 70.058C184.801 69.926 184.357 69.788 183.793 69.644C183.061 69.452 182.467 69.26 182.011 69.068C181.555 68.876 181.165 68.594 180.841 68.222C180.529 67.838 180.373 67.328 180.373 66.692C180.373 66.212 180.517 65.768 180.805 65.36C181.093 64.952 181.501 64.628 182.029 64.388C182.557 64.148 183.157 64.028 183.829 64.028C184.885 64.028 185.737 64.298 186.385 64.838C187.033 65.366 187.381 66.098 187.429 67.034H186.169C186.133 66.458 185.905 65.996 185.485 65.648C185.077 65.288 184.513 65.108 183.793 65.108C183.157 65.108 182.641 65.258 182.245 65.558C181.849 65.858 181.651 66.23 181.651 66.674C181.651 67.058 181.765 67.376 181.993 67.628C182.233 67.868 182.527 68.06 182.875 68.204C183.223 68.336 183.691 68.486 184.279 68.654C184.987 68.846 185.551 69.032 185.971 69.212C186.391 69.392 186.751 69.656 187.051 70.004C187.351 70.352 187.507 70.814 187.519 71.39C187.519 71.918 187.375 72.392 187.087 72.812C186.799 73.22 186.397 73.544 185.881 73.784C185.365 74.024 184.771 74.144 184.099 74.144ZM189.315 69.086C189.315 68.066 189.519 67.178 189.927 66.422C190.335 65.654 190.899 65.066 191.619 64.658C192.339 64.238 193.161 64.028 194.085 64.028C195.297 64.028 196.293 64.328 197.073 64.928C197.865 65.528 198.375 66.344 198.603 67.376H197.253C197.085 66.668 196.719 66.116 196.155 65.72C195.603 65.312 194.913 65.108 194.085 65.108C193.425 65.108 192.831 65.258 192.303 65.558C191.775 65.858 191.355 66.308 191.043 66.908C190.743 67.496 190.593 68.222 190.593 69.086C190.593 69.95 190.743 70.682 191.043 71.282C191.355 71.882 191.775 72.332 192.303 72.632C192.831 72.932 193.425 73.082 194.085 73.082C194.913 73.082 195.603 72.884 196.155 72.488C196.719 72.08 197.085 71.516 197.253 70.796H198.603C198.375 71.804 197.865 72.614 197.073 73.226C196.281 73.838 195.285 74.144 194.085 74.144C193.161 74.144 192.339 73.94 191.619 73.532C190.899 73.112 190.335 72.524 189.927 71.768C189.519 71 189.315 70.106 189.315 69.086ZM205.232 74.144C204.308 74.144 203.474 73.94 202.73 73.532C201.998 73.112 201.416 72.524 200.984 71.768C200.564 71 200.354 70.106 200.354 69.086C200.354 68.066 200.57 67.178 201.002 66.422C201.434 65.654 202.022 65.066 202.766 64.658C203.51 64.238 204.344 64.028 205.268 64.028C206.192 64.028 207.026 64.238 207.77 64.658C208.526 65.066 209.114 65.654 209.534 66.422C209.966 67.178 210.182 68.066 210.182 69.086C210.182 70.094 209.966 70.982 209.534 71.75C209.102 72.518 208.508 73.112 207.752 73.532C206.996 73.94 206.156 74.144 205.232 74.144ZM205.232 73.046C205.88 73.046 206.48 72.902 207.032 72.614C207.584 72.314 208.028 71.87 208.364 71.282C208.712 70.682 208.886 69.95 208.886 69.086C208.886 68.222 208.718 67.496 208.382 66.908C208.046 66.308 207.602 65.864 207.05 65.576C206.498 65.276 205.898 65.126 205.25 65.126C204.602 65.126 204.002 65.276 203.45 65.576C202.898 65.864 202.454 66.308 202.118 66.908C201.794 67.496 201.632 68.222 201.632 69.086C201.632 69.95 201.794 70.682 202.118 71.282C202.454 71.87 202.892 72.314 203.432 72.614C203.984 72.902 204.584 73.046 205.232 73.046ZM217.087 63.992C218.263 63.992 219.223 64.358 219.967 65.09C220.711 65.81 221.083 66.86 221.083 68.24V74H219.841V68.384C219.841 67.316 219.571 66.5 219.031 65.936C218.503 65.372 217.777 65.09 216.853 65.09C215.905 65.09 215.149 65.39 214.585 65.99C214.021 66.59 213.739 67.472 213.739 68.636V74H212.479V64.172H213.739V65.846C214.051 65.246 214.501 64.79 215.089 64.478C215.677 64.154 216.343 63.992 217.087 63.992ZM225.508 65.234V71.336C225.508 71.936 225.622 72.35 225.85 72.578C226.078 72.806 226.48 72.92 227.056 72.92H228.208V74H226.858C225.97 74 225.31 73.796 224.878 73.388C224.446 72.968 224.23 72.284 224.23 71.336V65.234H222.862V64.172H224.23V61.706H225.508V64.172H228.208V65.234H225.508ZM234.588 74.144C233.664 74.144 232.83 73.94 232.086 73.532C231.354 73.112 230.772 72.524 230.34 71.768C229.92 71 229.71 70.106 229.71 69.086C229.71 68.066 229.926 67.178 230.358 66.422C230.79 65.654 231.378 65.066 232.122 64.658C232.866 64.238 233.7 64.028 234.624 64.028C235.548 64.028 236.382 64.238 237.126 64.658C237.882 65.066 238.47 65.654 238.89 66.422C239.322 67.178 239.538 68.066 239.538 69.086C239.538 70.094 239.322 70.982 238.89 71.75C238.458 72.518 237.864 73.112 237.108 73.532C236.352 73.94 235.512 74.144 234.588 74.144ZM234.588 73.046C235.236 73.046 235.836 72.902 236.388 72.614C236.94 72.314 237.384 71.87 237.72 71.282C238.068 70.682 238.242 69.95 238.242 69.086C238.242 68.222 238.074 67.496 237.738 66.908C237.402 66.308 236.958 65.864 236.406 65.576C235.854 65.276 235.254 65.126 234.606 65.126C233.958 65.126 233.358 65.276 232.806 65.576C232.254 65.864 231.81 66.308 231.474 66.908C231.15 67.496 230.988 68.222 230.988 69.086C230.988 69.95 231.15 70.682 231.474 71.282C231.81 71.87 232.248 72.314 232.788 72.614C233.34 72.902 233.94 73.046 234.588 73.046Z" fill="white"/>
<path d="M110.864 69.086C110.864 68.066 111.068 67.178 111.476 66.422C111.884 65.654 112.448 65.066 113.168 64.658C113.888 64.238 114.71 64.028 115.634 64.028C116.846 64.028 117.842 64.328 118.622 64.928C119.414 65.528 119.924 66.344 120.152 67.376H118.802C118.634 66.668 118.268 66.116 117.704 65.72C117.152 65.312 116.462 65.108 115.634 65.108C114.974 65.108 114.38 65.258 113.852 65.558C113.324 65.858 112.904 66.308 112.592 66.908C112.292 67.496 112.142 68.222 112.142 69.086C112.142 69.95 112.292 70.682 112.592 71.282C112.904 71.882 113.324 72.332 113.852 72.632C114.38 72.932 114.974 73.082 115.634 73.082C116.462 73.082 117.152 72.884 117.704 72.488C118.268 72.08 118.634 71.516 118.802 70.796H120.152C119.924 71.804 119.414 72.614 118.622 73.226C117.83 73.838 116.834 74.144 115.634 74.144C114.71 74.144 113.888 73.94 113.168 73.532C112.448 73.112 111.884 72.524 111.476 71.768C111.068 71 110.864 70.106 110.864 69.086ZM126.781 74.144C125.857 74.144 125.023 73.94 124.279 73.532C123.547 73.112 122.965 72.524 122.533 71.768C122.113 71 121.903 70.106 121.903 69.086C121.903 68.066 122.119 67.178 122.551 66.422C122.983 65.654 123.571 65.066 124.315 64.658C125.059 64.238 125.893 64.028 126.817 64.028C127.741 64.028 128.575 64.238 129.319 64.658C130.075 65.066 130.663 65.654 131.083 66.422C131.515 67.178 131.731 68.066 131.731 69.086C131.731 70.094 131.515 70.982 131.083 71.75C130.651 72.518 130.057 73.112 129.301 73.532C128.545 73.94 127.705 74.144 126.781 74.144ZM126.781 73.046C127.429 73.046 128.029 72.902 128.581 72.614C129.133 72.314 129.577 71.87 129.913 71.282C130.261 70.682 130.435 69.95 130.435 69.086C130.435 68.222 130.267 67.496 129.931 66.908C129.595 66.308 129.151 65.864 128.599 65.576C128.047 65.276 127.447 65.126 126.799 65.126C126.151 65.126 125.551 65.276 124.999 65.576C124.447 65.864 124.003 66.308 123.667 66.908C123.343 67.496 123.181 68.222 123.181 69.086C123.181 69.95 123.343 70.682 123.667 71.282C124.003 71.87 124.441 72.314 124.981 72.614C125.533 72.902 126.133 73.046 126.781 73.046ZM145.728 63.992C146.88 63.992 147.816 64.358 148.536 65.09C149.268 65.81 149.634 66.86 149.634 68.24V74H148.392V68.384C148.392 67.316 148.134 66.5 147.618 65.936C147.102 65.372 146.4 65.09 145.512 65.09C144.588 65.09 143.85 65.396 143.298 66.008C142.746 66.62 142.47 67.508 142.47 68.672V74H141.228V68.384C141.228 67.316 140.97 66.5 140.454 65.936C139.938 65.372 139.23 65.09 138.33 65.09C137.406 65.09 136.668 65.396 136.116 66.008C135.564 66.62 135.288 67.508 135.288 68.672V74H134.028V64.172H135.288V65.864C135.6 65.252 136.044 64.79 136.62 64.478C137.196 64.154 137.838 63.992 138.546 63.992C139.398 63.992 140.142 64.196 140.778 64.604C141.426 65.012 141.894 65.612 142.182 66.404C142.446 65.624 142.896 65.03 143.532 64.622C144.18 64.202 144.912 63.992 145.728 63.992ZM156.796 69.068C156.796 68.06 157 67.178 157.408 66.422C157.816 65.654 158.374 65.066 159.082 64.658C159.802 64.238 160.612 64.028 161.512 64.028C162.376 64.028 163.156 64.238 163.852 64.658C164.548 65.078 165.058 65.624 165.382 66.296V60.68H166.642V74H165.382V71.804C165.082 72.488 164.59 73.052 163.906 73.496C163.222 73.928 162.418 74.144 161.494 74.144C160.594 74.144 159.784 73.934 159.064 73.514C158.356 73.094 157.798 72.5 157.39 71.732C156.994 70.964 156.796 70.076 156.796 69.068ZM165.382 69.086C165.382 68.294 165.22 67.598 164.896 66.998C164.572 66.398 164.128 65.936 163.564 65.612C163.012 65.288 162.4 65.126 161.728 65.126C161.032 65.126 160.408 65.282 159.856 65.594C159.304 65.906 158.866 66.362 158.542 66.962C158.23 67.55 158.074 68.252 158.074 69.068C158.074 69.872 158.23 70.58 158.542 71.192C158.866 71.792 159.304 72.254 159.856 72.578C160.408 72.89 161.032 73.046 161.728 73.046C162.4 73.046 163.012 72.884 163.564 72.56C164.128 72.236 164.572 71.774 164.896 71.174C165.22 70.574 165.382 69.878 165.382 69.086ZM178.41 68.582C178.41 69.014 178.398 69.344 178.374 69.572H170.22C170.256 70.316 170.436 70.952 170.76 71.48C171.084 72.008 171.51 72.41 172.038 72.686C172.566 72.95 173.142 73.082 173.766 73.082C174.582 73.082 175.266 72.884 175.818 72.488C176.382 72.092 176.754 71.558 176.934 70.886H178.266C178.026 71.846 177.51 72.632 176.718 73.244C175.938 73.844 174.954 74.144 173.766 74.144C172.842 74.144 172.014 73.94 171.282 73.532C170.55 73.112 169.974 72.524 169.554 71.768C169.146 71 168.942 70.106 168.942 69.086C168.942 68.066 169.146 67.172 169.554 66.404C169.962 65.636 170.532 65.048 171.264 64.64C171.996 64.232 172.83 64.028 173.766 64.028C174.702 64.028 175.518 64.232 176.214 64.64C176.922 65.048 177.462 65.6 177.834 66.296C178.218 66.98 178.41 67.742 178.41 68.582ZM177.132 68.546C177.144 67.814 176.994 67.19 176.682 66.674C176.382 66.158 175.968 65.768 175.44 65.504C174.912 65.24 174.336 65.108 173.712 65.108C172.776 65.108 171.978 65.408 171.318 66.008C170.658 66.608 170.292 67.454 170.22 68.546H177.132ZM184.099 74.144C182.971 74.144 182.047 73.886 181.327 73.37C180.619 72.842 180.223 72.128 180.139 71.228H181.435C181.495 71.78 181.753 72.23 182.209 72.578C182.677 72.914 183.301 73.082 184.081 73.082C184.765 73.082 185.299 72.92 185.683 72.596C186.079 72.272 186.277 71.87 186.277 71.39C186.277 71.054 186.169 70.778 185.953 70.562C185.737 70.346 185.461 70.178 185.125 70.058C184.801 69.926 184.357 69.788 183.793 69.644C183.061 69.452 182.467 69.26 182.011 69.068C181.555 68.876 181.165 68.594 180.841 68.222C180.529 67.838 180.373 67.328 180.373 66.692C180.373 66.212 180.517 65.768 180.805 65.36C181.093 64.952 181.501 64.628 182.029 64.388C182.557 64.148 183.157 64.028 183.829 64.028C184.885 64.028 185.737 64.298 186.385 64.838C187.033 65.366 187.381 66.098 187.429 67.034H186.169C186.133 66.458 185.905 65.996 185.485 65.648C185.077 65.288 184.513 65.108 183.793 65.108C183.157 65.108 182.641 65.258 182.245 65.558C181.849 65.858 181.651 66.23 181.651 66.674C181.651 67.058 181.765 67.376 181.993 67.628C182.233 67.868 182.527 68.06 182.875 68.204C183.223 68.336 183.691 68.486 184.279 68.654C184.987 68.846 185.551 69.032 185.971 69.212C186.391 69.392 186.751 69.656 187.051 70.004C187.351 70.352 187.507 70.814 187.519 71.39C187.519 71.918 187.375 72.392 187.087 72.812C186.799 73.22 186.397 73.544 185.881 73.784C185.365 74.024 184.771 74.144 184.099 74.144ZM189.315 69.086C189.315 68.066 189.519 67.178 189.927 66.422C190.335 65.654 190.899 65.066 191.619 64.658C192.339 64.238 193.161 64.028 194.085 64.028C195.297 64.028 196.293 64.328 197.073 64.928C197.865 65.528 198.375 66.344 198.603 67.376H197.253C197.085 66.668 196.719 66.116 196.155 65.72C195.603 65.312 194.913 65.108 194.085 65.108C193.425 65.108 192.831 65.258 192.303 65.558C191.775 65.858 191.355 66.308 191.043 66.908C190.743 67.496 190.593 68.222 190.593 69.086C190.593 69.95 190.743 70.682 191.043 71.282C191.355 71.882 191.775 72.332 192.303 72.632C192.831 72.932 193.425 73.082 194.085 73.082C194.913 73.082 195.603 72.884 196.155 72.488C196.719 72.08 197.085 71.516 197.253 70.796H198.603C198.375 71.804 197.865 72.614 197.073 73.226C196.281 73.838 195.285 74.144 194.085 74.144C193.161 74.144 192.339 73.94 191.619 73.532C190.899 73.112 190.335 72.524 189.927 71.768C189.519 71 189.315 70.106 189.315 69.086ZM205.232 74.144C204.308 74.144 203.474 73.94 202.73 73.532C201.998 73.112 201.416 72.524 200.984 71.768C200.564 71 200.354 70.106 200.354 69.086C200.354 68.066 200.57 67.178 201.002 66.422C201.434 65.654 202.022 65.066 202.766 64.658C203.51 64.238 204.344 64.028 205.268 64.028C206.192 64.028 207.026 64.238 207.77 64.658C208.526 65.066 209.114 65.654 209.534 66.422C209.966 67.178 210.182 68.066 210.182 69.086C210.182 70.094 209.966 70.982 209.534 71.75C209.102 72.518 208.508 73.112 207.752 73.532C206.996 73.94 206.156 74.144 205.232 74.144ZM205.232 73.046C205.88 73.046 206.48 72.902 207.032 72.614C207.584 72.314 208.028 71.87 208.364 71.282C208.712 70.682 208.886 69.95 208.886 69.086C208.886 68.222 208.718 67.496 208.382 66.908C208.046 66.308 207.602 65.864 207.05 65.576C206.498 65.276 205.898 65.126 205.25 65.126C204.602 65.126 204.002 65.276 203.45 65.576C202.898 65.864 202.454 66.308 202.118 66.908C201.794 67.496 201.632 68.222 201.632 69.086C201.632 69.95 201.794 70.682 202.118 71.282C202.454 71.87 202.892 72.314 203.432 72.614C203.984 72.902 204.584 73.046 205.232 73.046ZM217.087 63.992C218.263 63.992 219.223 64.358 219.967 65.09C220.711 65.81 221.083 66.86 221.083 68.24V74H219.841V68.384C219.841 67.316 219.571 66.5 219.031 65.936C218.503 65.372 217.777 65.09 216.853 65.09C215.905 65.09 215.149 65.39 214.585 65.99C214.021 66.59 213.739 67.472 213.739 68.636V74H212.479V64.172H213.739V65.846C214.051 65.246 214.501 64.79 215.089 64.478C215.677 64.154 216.343 63.992 217.087 63.992ZM225.508 65.234V71.336C225.508 71.936 225.622 72.35 225.85 72.578C226.078 72.806 226.48 72.92 227.056 72.92H228.208V74H226.858C225.97 74 225.31 73.796 224.878 73.388C224.446 72.968 224.23 72.284 224.23 71.336V65.234H222.862V64.172H224.23V61.706H225.508V64.172H228.208V65.234H225.508ZM234.588 74.144C233.664 74.144 232.83 73.94 232.086 73.532C231.354 73.112 230.772 72.524 230.34 71.768C229.92 71 229.71 70.106 229.71 69.086C229.71 68.066 229.926 67.178 230.358 66.422C230.79 65.654 231.378 65.066 232.122 64.658C232.866 64.238 233.7 64.028 234.624 64.028C235.548 64.028 236.382 64.238 237.126 64.658C237.882 65.066 238.47 65.654 238.89 66.422C239.322 67.178 239.538 68.066 239.538 69.086C239.538 70.094 239.322 70.982 238.89 71.75C238.458 72.518 237.864 73.112 237.108 73.532C236.352 73.94 235.512 74.144 234.588 74.144ZM234.588 73.046C235.236 73.046 235.836 72.902 236.388 72.614C236.94 72.314 237.384 71.87 237.72 71.282C238.068 70.682 238.242 69.95 238.242 69.086C238.242 68.222 238.074 67.496 237.738 66.908C237.402 66.308 236.958 65.864 236.406 65.576C235.854 65.276 235.254 65.126 234.606 65.126C233.958 65.126 233.358 65.276 232.806 65.576C232.254 65.864 231.81 66.308 231.474 66.908C231.15 67.496 230.988 68.222 230.988 69.086C230.988 69.95 231.15 70.682 231.474 71.282C231.81 71.87 232.248 72.314 232.788 72.614C233.34 72.902 233.94 73.046 234.588 73.046Z" fill="url(#paint1_linear)" fill-opacity="0.4"/>
</g>
<g filter="url(#filter2_d)">
<path d="M17.472 100.696C19.824 100.696 21.696 101.464 23.088 103C24.504 104.512 25.212 106.6 25.212 109.264V121H19.092V110.092C19.092 108.748 18.744 107.704 18.048 106.96C17.352 106.216 16.416 105.844 15.24 105.844C14.064 105.844 13.128 106.216 12.432 106.96C11.736 107.704 11.388 108.748 11.388 110.092V121H5.232V100.912H11.388V103.576C12.012 102.688 12.852 101.992 13.908 101.488C14.964 100.96 16.152 100.696 17.472 100.696ZM28.2658 110.92C28.2658 108.856 28.6498 107.044 29.4178 105.484C30.2098 103.924 31.2778 102.724 32.6218 101.884C33.9658 101.044 35.4658 100.624 37.1218 100.624C38.5378 100.624 39.7738 100.912 40.8298 101.488C41.9098 102.064 42.7378 102.82 43.3138 103.756V100.912H49.4698V121H43.3138V118.156C42.7138 119.092 41.8738 119.848 40.7938 120.424C39.7378 121 38.5018 121.288 37.0858 121.288C35.4538 121.288 33.9658 120.868 32.6218 120.028C31.2778 119.164 30.2098 117.952 29.4178 116.392C28.6498 114.808 28.2658 112.984 28.2658 110.92ZM43.3138 110.956C43.3138 109.42 42.8818 108.208 42.0178 107.32C41.1778 106.432 40.1458 105.988 38.9218 105.988C37.6978 105.988 36.6538 106.432 35.7898 107.32C34.9498 108.184 34.5298 109.384 34.5298 110.92C34.5298 112.456 34.9498 113.68 35.7898 114.592C36.6538 115.48 37.6978 115.924 38.9218 115.924C40.1458 115.924 41.1778 115.48 42.0178 114.592C42.8818 113.704 43.3138 112.492 43.3138 110.956ZM69.7243 121.288C67.9723 121.288 66.4123 120.988 65.0443 120.388C63.6763 119.788 62.5963 118.972 61.8043 117.94C61.0123 116.884 60.5683 115.708 60.4723 114.412H66.5563C66.6283 115.108 66.9523 115.672 67.5283 116.104C68.1043 116.536 68.8123 116.752 69.6523 116.752C70.4203 116.752 71.0083 116.608 71.4163 116.32C71.8483 116.008 72.0643 115.612 72.0643 115.132C72.0643 114.556 71.7643 114.136 71.1643 113.872C70.5643 113.584 69.5923 113.272 68.2483 112.936C66.8083 112.6 65.6083 112.252 64.6483 111.892C63.6883 111.508 62.8603 110.92 62.1643 110.128C61.4683 109.312 61.1203 108.22 61.1203 106.852C61.1203 105.7 61.4323 104.656 62.0563 103.72C62.7043 102.76 63.6403 102.004 64.8643 101.452C66.1123 100.9 67.5883 100.624 69.2923 100.624C71.8123 100.624 73.7923 101.248 75.2323 102.496C76.6963 103.744 77.5363 105.4 77.7523 107.464H72.0643C71.9683 106.768 71.6563 106.216 71.1283 105.808C70.6243 105.4 69.9523 105.196 69.1123 105.196C68.3923 105.196 67.8403 105.34 67.4563 105.628C67.0723 105.892 66.8803 106.264 66.8803 106.744C66.8803 107.32 67.1803 107.752 67.7803 108.04C68.4043 108.328 69.3643 108.616 70.6603 108.904C72.1483 109.288 73.3603 109.672 74.2963 110.056C75.2323 110.416 76.0483 111.016 76.7443 111.856C77.4643 112.672 77.8363 113.776 77.8603 115.168C77.8603 116.344 77.5243 117.4 76.8523 118.336C76.2043 119.248 75.2563 119.968 74.0083 120.496C72.7843 121.024 71.3563 121.288 69.7243 121.288ZM100.563 110.632C100.563 111.208 100.527 111.808 100.455 112.432H86.5225C86.6185 113.68 87.0145 114.64 87.7105 115.312C88.4305 115.96 89.3065 116.284 90.3385 116.284C91.8745 116.284 92.9425 115.636 93.5425 114.34H100.095C99.7585 115.66 99.1465 116.848 98.2585 117.904C97.3945 118.96 96.3025 119.788 94.9825 120.388C93.6625 120.988 92.1865 121.288 90.5545 121.288C88.5865 121.288 86.8345 120.868 85.2985 120.028C83.7625 119.188 82.5625 117.988 81.6985 116.428C80.8345 114.868 80.4025 113.044 80.4025 110.956C80.4025 108.868 80.8225 107.044 81.6625 105.484C82.5265 103.924 83.7265 102.724 85.2625 101.884C86.7985 101.044 88.5625 100.624 90.5545 100.624C92.4985 100.624 94.2265 101.032 95.7385 101.848C97.2505 102.664 98.4265 103.828 99.2665 105.34C100.131 106.852 100.563 108.616 100.563 110.632ZM94.2625 109.012C94.2625 107.956 93.9025 107.116 93.1825 106.492C92.4625 105.868 91.5625 105.556 90.4825 105.556C89.4505 105.556 88.5745 105.856 87.8545 106.456C87.1585 107.056 86.7265 107.908 86.5585 109.012H94.2625ZM111.442 100.624C112.858 100.624 114.094 100.912 115.15 101.488C116.23 102.064 117.058 102.82 117.634 103.756V100.912H123.79V120.964C123.79 122.812 123.418 124.48 122.674 125.968C121.954 127.48 120.838 128.68 119.326 129.568C117.838 130.456 115.978 130.9 113.746 130.9C110.77 130.9 108.358 130.192 106.51 128.776C104.662 127.384 103.606 125.488 103.342 123.088H109.426C109.618 123.856 110.074 124.456 110.794 124.888C111.514 125.344 112.402 125.572 113.458 125.572C114.73 125.572 115.738 125.2 116.482 124.456C117.25 123.736 117.634 122.572 117.634 120.964V118.12C117.034 119.056 116.206 119.824 115.15 120.424C114.094 121 112.858 121.288 111.442 121.288C109.786 121.288 108.286 120.868 106.942 120.028C105.598 119.164 104.53 117.952 103.738 116.392C102.97 114.808 102.586 112.984 102.586 110.92C102.586 108.856 102.97 107.044 103.738 105.484C104.53 103.924 105.598 102.724 106.942 101.884C108.286 101.044 109.786 100.624 111.442 100.624ZM117.634 110.956C117.634 109.42 117.202 108.208 116.338 107.32C115.498 106.432 114.466 105.988 113.242 105.988C112.018 105.988 110.974 106.432 110.11 107.32C109.27 108.184 108.85 109.384 108.85 110.92C108.85 112.456 109.27 113.68 110.11 114.592C110.974 115.48 112.018 115.924 113.242 115.924C114.466 115.924 115.498 115.48 116.338 114.592C117.202 113.704 117.634 112.492 117.634 110.956ZM148.08 100.912V121H141.924V118.264C141.3 119.152 140.448 119.872 139.368 120.424C138.312 120.952 137.136 121.216 135.84 121.216C134.304 121.216 132.948 120.88 131.772 120.208C130.596 119.512 129.684 118.516 129.036 117.22C128.388 115.924 128.064 114.4 128.064 112.648V100.912H134.184V111.82C134.184 113.164 134.532 114.208 135.228 114.952C135.924 115.696 136.86 116.068 138.036 116.068C139.236 116.068 140.184 115.696 140.88 114.952C141.576 114.208 141.924 113.164 141.924 111.82V100.912H148.08ZM164.742 100.696C167.094 100.696 168.966 101.464 170.358 103C171.774 104.512 172.482 106.6 172.482 109.264V121H166.362V110.092C166.362 108.748 166.014 107.704 165.318 106.96C164.622 106.216 163.686 105.844 162.51 105.844C161.334 105.844 160.398 106.216 159.702 106.96C159.006 107.704 158.658 108.748 158.658 110.092V121H152.502V100.912H158.658V103.576C159.282 102.688 160.122 101.992 161.178 101.488C162.234 100.96 163.422 100.696 164.742 100.696ZM175.535 110.92C175.535 108.856 175.919 107.044 176.687 105.484C177.479 103.924 178.547 102.724 179.891 101.884C181.235 101.044 182.735 100.624 184.391 100.624C185.711 100.624 186.911 100.9 187.991 101.452C189.095 102.004 189.959 102.748 190.583 103.684V94.36H196.739V121H190.583V118.12C190.007 119.08 189.179 119.848 188.099 120.424C187.043 121 185.807 121.288 184.391 121.288C182.735 121.288 181.235 120.868 179.891 120.028C178.547 119.164 177.479 117.952 176.687 116.392C175.919 114.808 175.535 112.984 175.535 110.92ZM190.583 110.956C190.583 109.42 190.151 108.208 189.287 107.32C188.447 106.432 187.415 105.988 186.191 105.988C184.967 105.988 183.923 106.432 183.059 107.32C182.219 108.184 181.799 109.384 181.799 110.92C181.799 112.456 182.219 113.68 183.059 114.592C183.923 115.48 184.967 115.924 186.191 115.924C187.415 115.924 188.447 115.48 189.287 114.592C190.151 113.704 190.583 112.492 190.583 110.956ZM199.969 110.92C199.969 108.856 200.353 107.044 201.121 105.484C201.913 103.924 202.981 102.724 204.325 101.884C205.669 101.044 207.169 100.624 208.825 100.624C210.241 100.624 211.477 100.912 212.533 101.488C213.613 102.064 214.441 102.82 215.017 103.756V100.912H221.173V121H215.017V118.156C214.417 119.092 213.577 119.848 212.497 120.424C211.441 121 210.205 121.288 208.789 121.288C207.157 121.288 205.669 120.868 204.325 120.028C202.981 119.164 201.913 117.952 201.121 116.392C200.353 114.808 199.969 112.984 199.969 110.92ZM215.017 110.956C215.017 109.42 214.585 108.208 213.721 107.32C212.881 106.432 211.849 105.988 210.625 105.988C209.401 105.988 208.357 106.432 207.493 107.32C206.653 108.184 206.233 109.384 206.233 110.92C206.233 112.456 206.653 113.68 207.493 114.592C208.357 115.48 209.401 115.924 210.625 115.924C211.849 115.924 212.881 115.48 213.721 114.592C214.585 113.704 215.017 112.492 215.017 110.956ZM239.411 103.756C240.011 102.82 240.839 102.064 241.895 101.488C242.951 100.912 244.187 100.624 245.603 100.624C247.259 100.624 248.759 101.044 250.103 101.884C251.447 102.724 252.503 103.924 253.271 105.484C254.063 107.044 254.459 108.856 254.459 110.92C254.459 112.984 254.063 114.808 253.271 116.392C252.503 117.952 251.447 119.164 250.103 120.028C248.759 120.868 247.259 121.288 245.603 121.288C244.211 121.288 242.975 121 241.895 120.424C240.839 119.848 240.011 119.104 239.411 118.192V130.576H233.255V100.912H239.411V103.756ZM248.195 110.92C248.195 109.384 247.763 108.184 246.899 107.32C246.059 106.432 245.015 105.988 243.767 105.988C242.543 105.988 241.499 106.432 240.635 107.32C239.795 108.208 239.375 109.42 239.375 110.956C239.375 112.492 239.795 113.704 240.635 114.592C241.499 115.48 242.543 115.924 243.767 115.924C244.991 115.924 246.035 115.48 246.899 114.592C247.763 113.68 248.195 112.456 248.195 110.92ZM276.625 110.632C276.625 111.208 276.589 111.808 276.517 112.432H262.585C262.681 113.68 263.077 114.64 263.773 115.312C264.493 115.96 265.369 116.284 266.401 116.284C267.937 116.284 269.005 115.636 269.605 114.34H276.157C275.821 115.66 275.209 116.848 274.321 117.904C273.457 118.96 272.365 119.788 271.045 120.388C269.725 120.988 268.249 121.288 266.617 121.288C264.649 121.288 262.897 120.868 261.361 120.028C259.825 119.188 258.625 117.988 257.761 116.428C256.897 114.868 256.465 113.044 256.465 110.956C256.465 108.868 256.885 107.044 257.725 105.484C258.589 103.924 259.789 102.724 261.325 101.884C262.861 101.044 264.625 100.624 266.617 100.624C268.561 100.624 270.289 101.032 271.801 101.848C273.313 102.664 274.489 103.828 275.329 105.34C276.193 106.852 276.625 108.616 276.625 110.632ZM270.325 109.012C270.325 107.956 269.965 107.116 269.245 106.492C268.525 105.868 267.625 105.556 266.545 105.556C265.513 105.556 264.637 105.856 263.917 106.456C263.221 107.056 262.789 107.908 262.621 109.012H270.325ZM288.621 116.032C290.205 116.032 291.273 115.264 291.825 113.728H298.377C297.921 115.768 297.009 117.436 295.641 118.732C294.273 120.028 292.569 120.832 290.529 121.144V122.476C291.777 122.476 292.869 122.812 293.805 123.484C294.741 124.18 295.209 125.212 295.209 126.58C295.209 127.948 294.717 128.98 293.733 129.676C292.749 130.396 291.573 130.756 290.205 130.756H284.661V127.372H289.377C289.857 127.372 290.217 127.3 290.457 127.156C290.697 127.012 290.817 126.772 290.817 126.436C290.817 126.1 290.697 125.86 290.457 125.716C290.217 125.596 289.857 125.536 289.377 125.536H286.821V121.144C284.349 120.76 282.369 119.668 280.881 117.868C279.393 116.044 278.649 113.74 278.649 110.956C278.649 108.868 279.069 107.044 279.909 105.484C280.773 103.924 281.961 102.724 283.473 101.884C285.009 101.044 286.761 100.624 288.729 100.624C291.249 100.624 293.349 101.284 295.029 102.604C296.733 103.924 297.849 105.784 298.377 108.184H291.825C291.273 106.648 290.205 105.88 288.621 105.88C287.493 105.88 286.593 106.324 285.921 107.212C285.249 108.076 284.913 109.324 284.913 110.956C284.913 112.588 285.249 113.848 285.921 114.736C286.593 115.6 287.493 116.032 288.621 116.032ZM300.446 110.92C300.446 108.856 300.83 107.044 301.598 105.484C302.39 103.924 303.458 102.724 304.802 101.884C306.146 101.044 307.646 100.624 309.302 100.624C310.718 100.624 311.954 100.912 313.01 101.488C314.09 102.064 314.918 102.82 315.494 103.756V100.912H321.65V121H315.494V118.156C314.894 119.092 314.054 119.848 312.974 120.424C311.918 121 310.682 121.288 309.266 121.288C307.634 121.288 306.146 120.868 304.802 120.028C303.458 119.164 302.39 117.952 301.598 116.392C300.83 114.808 300.446 112.984 300.446 110.92ZM315.494 110.956C315.494 109.42 315.062 108.208 314.198 107.32C313.358 106.432 312.326 105.988 311.102 105.988C309.878 105.988 308.834 106.432 307.97 107.32C307.13 108.184 306.71 109.384 306.71 110.92C306.71 112.456 307.13 113.68 307.97 114.592C308.834 115.48 309.878 115.924 311.102 115.924C312.326 115.924 313.358 115.48 314.198 114.592C315.062 113.704 315.494 112.492 315.494 110.956Z" fill="white"/>
<path d="M17.472 100.696C19.824 100.696 21.696 101.464 23.088 103C24.504 104.512 25.212 106.6 25.212 109.264V121H19.092V110.092C19.092 108.748 18.744 107.704 18.048 106.96C17.352 106.216 16.416 105.844 15.24 105.844C14.064 105.844 13.128 106.216 12.432 106.96C11.736 107.704 11.388 108.748 11.388 110.092V121H5.232V100.912H11.388V103.576C12.012 102.688 12.852 101.992 13.908 101.488C14.964 100.96 16.152 100.696 17.472 100.696ZM28.2658 110.92C28.2658 108.856 28.6498 107.044 29.4178 105.484C30.2098 103.924 31.2778 102.724 32.6218 101.884C33.9658 101.044 35.4658 100.624 37.1218 100.624C38.5378 100.624 39.7738 100.912 40.8298 101.488C41.9098 102.064 42.7378 102.82 43.3138 103.756V100.912H49.4698V121H43.3138V118.156C42.7138 119.092 41.8738 119.848 40.7938 120.424C39.7378 121 38.5018 121.288 37.0858 121.288C35.4538 121.288 33.9658 120.868 32.6218 120.028C31.2778 119.164 30.2098 117.952 29.4178 116.392C28.6498 114.808 28.2658 112.984 28.2658 110.92ZM43.3138 110.956C43.3138 109.42 42.8818 108.208 42.0178 107.32C41.1778 106.432 40.1458 105.988 38.9218 105.988C37.6978 105.988 36.6538 106.432 35.7898 107.32C34.9498 108.184 34.5298 109.384 34.5298 110.92C34.5298 112.456 34.9498 113.68 35.7898 114.592C36.6538 115.48 37.6978 115.924 38.9218 115.924C40.1458 115.924 41.1778 115.48 42.0178 114.592C42.8818 113.704 43.3138 112.492 43.3138 110.956ZM69.7243 121.288C67.9723 121.288 66.4123 120.988 65.0443 120.388C63.6763 119.788 62.5963 118.972 61.8043 117.94C61.0123 116.884 60.5683 115.708 60.4723 114.412H66.5563C66.6283 115.108 66.9523 115.672 67.5283 116.104C68.1043 116.536 68.8123 116.752 69.6523 116.752C70.4203 116.752 71.0083 116.608 71.4163 116.32C71.8483 116.008 72.0643 115.612 72.0643 115.132C72.0643 114.556 71.7643 114.136 71.1643 113.872C70.5643 113.584 69.5923 113.272 68.2483 112.936C66.8083 112.6 65.6083 112.252 64.6483 111.892C63.6883 111.508 62.8603 110.92 62.1643 110.128C61.4683 109.312 61.1203 108.22 61.1203 106.852C61.1203 105.7 61.4323 104.656 62.0563 103.72C62.7043 102.76 63.6403 102.004 64.8643 101.452C66.1123 100.9 67.5883 100.624 69.2923 100.624C71.8123 100.624 73.7923 101.248 75.2323 102.496C76.6963 103.744 77.5363 105.4 77.7523 107.464H72.0643C71.9683 106.768 71.6563 106.216 71.1283 105.808C70.6243 105.4 69.9523 105.196 69.1123 105.196C68.3923 105.196 67.8403 105.34 67.4563 105.628C67.0723 105.892 66.8803 106.264 66.8803 106.744C66.8803 107.32 67.1803 107.752 67.7803 108.04C68.4043 108.328 69.3643 108.616 70.6603 108.904C72.1483 109.288 73.3603 109.672 74.2963 110.056C75.2323 110.416 76.0483 111.016 76.7443 111.856C77.4643 112.672 77.8363 113.776 77.8603 115.168C77.8603 116.344 77.5243 117.4 76.8523 118.336C76.2043 119.248 75.2563 119.968 74.0083 120.496C72.7843 121.024 71.3563 121.288 69.7243 121.288ZM100.563 110.632C100.563 111.208 100.527 111.808 100.455 112.432H86.5225C86.6185 113.68 87.0145 114.64 87.7105 115.312C88.4305 115.96 89.3065 116.284 90.3385 116.284C91.8745 116.284 92.9425 115.636 93.5425 114.34H100.095C99.7585 115.66 99.1465 116.848 98.2585 117.904C97.3945 118.96 96.3025 119.788 94.9825 120.388C93.6625 120.988 92.1865 121.288 90.5545 121.288C88.5865 121.288 86.8345 120.868 85.2985 120.028C83.7625 119.188 82.5625 117.988 81.6985 116.428C80.8345 114.868 80.4025 113.044 80.4025 110.956C80.4025 108.868 80.8225 107.044 81.6625 105.484C82.5265 103.924 83.7265 102.724 85.2625 101.884C86.7985 101.044 88.5625 100.624 90.5545 100.624C92.4985 100.624 94.2265 101.032 95.7385 101.848C97.2505 102.664 98.4265 103.828 99.2665 105.34C100.131 106.852 100.563 108.616 100.563 110.632ZM94.2625 109.012C94.2625 107.956 93.9025 107.116 93.1825 106.492C92.4625 105.868 91.5625 105.556 90.4825 105.556C89.4505 105.556 88.5745 105.856 87.8545 106.456C87.1585 107.056 86.7265 107.908 86.5585 109.012H94.2625ZM111.442 100.624C112.858 100.624 114.094 100.912 115.15 101.488C116.23 102.064 117.058 102.82 117.634 103.756V100.912H123.79V120.964C123.79 122.812 123.418 124.48 122.674 125.968C121.954 127.48 120.838 128.68 119.326 129.568C117.838 130.456 115.978 130.9 113.746 130.9C110.77 130.9 108.358 130.192 106.51 128.776C104.662 127.384 103.606 125.488 103.342 123.088H109.426C109.618 123.856 110.074 124.456 110.794 124.888C111.514 125.344 112.402 125.572 113.458 125.572C114.73 125.572 115.738 125.2 116.482 124.456C117.25 123.736 117.634 122.572 117.634 120.964V118.12C117.034 119.056 116.206 119.824 115.15 120.424C114.094 121 112.858 121.288 111.442 121.288C109.786 121.288 108.286 120.868 106.942 120.028C105.598 119.164 104.53 117.952 103.738 116.392C102.97 114.808 102.586 112.984 102.586 110.92C102.586 108.856 102.97 107.044 103.738 105.484C104.53 103.924 105.598 102.724 106.942 101.884C108.286 101.044 109.786 100.624 111.442 100.624ZM117.634 110.956C117.634 109.42 117.202 108.208 116.338 107.32C115.498 106.432 114.466 105.988 113.242 105.988C112.018 105.988 110.974 106.432 110.11 107.32C109.27 108.184 108.85 109.384 108.85 110.92C108.85 112.456 109.27 113.68 110.11 114.592C110.974 115.48 112.018 115.924 113.242 115.924C114.466 115.924 115.498 115.48 116.338 114.592C117.202 113.704 117.634 112.492 117.634 110.956ZM148.08 100.912V121H141.924V118.264C141.3 119.152 140.448 119.872 139.368 120.424C138.312 120.952 137.136 121.216 135.84 121.216C134.304 121.216 132.948 120.88 131.772 120.208C130.596 119.512 129.684 118.516 129.036 117.22C128.388 115.924 128.064 114.4 128.064 112.648V100.912H134.184V111.82C134.184 113.164 134.532 114.208 135.228 114.952C135.924 115.696 136.86 116.068 138.036 116.068C139.236 116.068 140.184 115.696 140.88 114.952C141.576 114.208 141.924 113.164 141.924 111.82V100.912H148.08ZM164.742 100.696C167.094 100.696 168.966 101.464 170.358 103C171.774 104.512 172.482 106.6 172.482 109.264V121H166.362V110.092C166.362 108.748 166.014 107.704 165.318 106.96C164.622 106.216 163.686 105.844 162.51 105.844C161.334 105.844 160.398 106.216 159.702 106.96C159.006 107.704 158.658 108.748 158.658 110.092V121H152.502V100.912H158.658V103.576C159.282 102.688 160.122 101.992 161.178 101.488C162.234 100.96 163.422 100.696 164.742 100.696ZM175.535 110.92C175.535 108.856 175.919 107.044 176.687 105.484C177.479 103.924 178.547 102.724 179.891 101.884C181.235 101.044 182.735 100.624 184.391 100.624C185.711 100.624 186.911 100.9 187.991 101.452C189.095 102.004 189.959 102.748 190.583 103.684V94.36H196.739V121H190.583V118.12C190.007 119.08 189.179 119.848 188.099 120.424C187.043 121 185.807 121.288 184.391 121.288C182.735 121.288 181.235 120.868 179.891 120.028C178.547 119.164 177.479 117.952 176.687 116.392C175.919 114.808 175.535 112.984 175.535 110.92ZM190.583 110.956C190.583 109.42 190.151 108.208 189.287 107.32C188.447 106.432 187.415 105.988 186.191 105.988C184.967 105.988 183.923 106.432 183.059 107.32C182.219 108.184 181.799 109.384 181.799 110.92C181.799 112.456 182.219 113.68 183.059 114.592C183.923 115.48 184.967 115.924 186.191 115.924C187.415 115.924 188.447 115.48 189.287 114.592C190.151 113.704 190.583 112.492 190.583 110.956ZM199.969 110.92C199.969 108.856 200.353 107.044 201.121 105.484C201.913 103.924 202.981 102.724 204.325 101.884C205.669 101.044 207.169 100.624 208.825 100.624C210.241 100.624 211.477 100.912 212.533 101.488C213.613 102.064 214.441 102.82 215.017 103.756V100.912H221.173V121H215.017V118.156C214.417 119.092 213.577 119.848 212.497 120.424C211.441 121 210.205 121.288 208.789 121.288C207.157 121.288 205.669 120.868 204.325 120.028C202.981 119.164 201.913 117.952 201.121 116.392C200.353 114.808 199.969 112.984 199.969 110.92ZM215.017 110.956C215.017 109.42 214.585 108.208 213.721 107.32C212.881 106.432 211.849 105.988 210.625 105.988C209.401 105.988 208.357 106.432 207.493 107.32C206.653 108.184 206.233 109.384 206.233 110.92C206.233 112.456 206.653 113.68 207.493 114.592C208.357 115.48 209.401 115.924 210.625 115.924C211.849 115.924 212.881 115.48 213.721 114.592C214.585 113.704 215.017 112.492 215.017 110.956ZM239.411 103.756C240.011 102.82 240.839 102.064 241.895 101.488C242.951 100.912 244.187 100.624 245.603 100.624C247.259 100.624 248.759 101.044 250.103 101.884C251.447 102.724 252.503 103.924 253.271 105.484C254.063 107.044 254.459 108.856 254.459 110.92C254.459 112.984 254.063 114.808 253.271 116.392C252.503 117.952 251.447 119.164 250.103 120.028C248.759 120.868 247.259 121.288 245.603 121.288C244.211 121.288 242.975 121 241.895 120.424C240.839 119.848 240.011 119.104 239.411 118.192V130.576H233.255V100.912H239.411V103.756ZM248.195 110.92C248.195 109.384 247.763 108.184 246.899 107.32C246.059 106.432 245.015 105.988 243.767 105.988C242.543 105.988 241.499 106.432 240.635 107.32C239.795 108.208 239.375 109.42 239.375 110.956C239.375 112.492 239.795 113.704 240.635 114.592C241.499 115.48 242.543 115.924 243.767 115.924C244.991 115.924 246.035 115.48 246.899 114.592C247.763 113.68 248.195 112.456 248.195 110.92ZM276.625 110.632C276.625 111.208 276.589 111.808 276.517 112.432H262.585C262.681 113.68 263.077 114.64 263.773 115.312C264.493 115.96 265.369 116.284 266.401 116.284C267.937 116.284 269.005 115.636 269.605 114.34H276.157C275.821 115.66 275.209 116.848 274.321 117.904C273.457 118.96 272.365 119.788 271.045 120.388C269.725 120.988 268.249 121.288 266.617 121.288C264.649 121.288 262.897 120.868 261.361 120.028C259.825 119.188 258.625 117.988 257.761 116.428C256.897 114.868 256.465 113.044 256.465 110.956C256.465 108.868 256.885 107.044 257.725 105.484C258.589 103.924 259.789 102.724 261.325 101.884C262.861 101.044 264.625 100.624 266.617 100.624C268.561 100.624 270.289 101.032 271.801 101.848C273.313 102.664 274.489 103.828 275.329 105.34C276.193 106.852 276.625 108.616 276.625 110.632ZM270.325 109.012C270.325 107.956 269.965 107.116 269.245 106.492C268.525 105.868 267.625 105.556 266.545 105.556C265.513 105.556 264.637 105.856 263.917 106.456C263.221 107.056 262.789 107.908 262.621 109.012H270.325ZM288.621 116.032C290.205 116.032 291.273 115.264 291.825 113.728H298.377C297.921 115.768 297.009 117.436 295.641 118.732C294.273 120.028 292.569 120.832 290.529 121.144V122.476C291.777 122.476 292.869 122.812 293.805 123.484C294.741 124.18 295.209 125.212 295.209 126.58C295.209 127.948 294.717 128.98 293.733 129.676C292.749 130.396 291.573 130.756 290.205 130.756H284.661V127.372H289.377C289.857 127.372 290.217 127.3 290.457 127.156C290.697 127.012 290.817 126.772 290.817 126.436C290.817 126.1 290.697 125.86 290.457 125.716C290.217 125.596 289.857 125.536 289.377 125.536H286.821V121.144C284.349 120.76 282.369 119.668 280.881 117.868C279.393 116.044 278.649 113.74 278.649 110.956C278.649 108.868 279.069 107.044 279.909 105.484C280.773 103.924 281.961 102.724 283.473 101.884C285.009 101.044 286.761 100.624 288.729 100.624C291.249 100.624 293.349 101.284 295.029 102.604C296.733 103.924 297.849 105.784 298.377 108.184H291.825C291.273 106.648 290.205 105.88 288.621 105.88C287.493 105.88 286.593 106.324 285.921 107.212C285.249 108.076 284.913 109.324 284.913 110.956C284.913 112.588 285.249 113.848 285.921 114.736C286.593 115.6 287.493 116.032 288.621 116.032ZM300.446 110.92C300.446 108.856 300.83 107.044 301.598 105.484C302.39 103.924 303.458 102.724 304.802 101.884C306.146 101.044 307.646 100.624 309.302 100.624C310.718 100.624 311.954 100.912 313.01 101.488C314.09 102.064 314.918 102.82 315.494 103.756V100.912H321.65V121H315.494V118.156C314.894 119.092 314.054 119.848 312.974 120.424C311.918 121 310.682 121.288 309.266 121.288C307.634 121.288 306.146 120.868 304.802 120.028C303.458 119.164 302.39 117.952 301.598 116.392C300.83 114.808 300.446 112.984 300.446 110.92ZM315.494 110.956C315.494 109.42 315.062 108.208 314.198 107.32C313.358 106.432 312.326 105.988 311.102 105.988C309.878 105.988 308.834 106.432 307.97 107.32C307.13 108.184 306.71 109.384 306.71 110.92C306.71 112.456 307.13 113.68 307.97 114.592C308.834 115.48 309.878 115.924 311.102 115.924C312.326 115.924 313.358 115.48 314.198 114.592C315.062 113.704 315.494 112.492 315.494 110.956Z" fill="url(#paint2_linear)" fill-opacity="0.4"/>
</g>
<defs>
<filter id="filter0_d" x="0.187988" y="11.1639" width="196.598" height="50.412" filterUnits="userSpaceOnUse" color-interpolation-filters="sRGB">
<feFlood flood-opacity="0" result="BackgroundImageFix"/>
<feColorMatrix in="SourceAlpha" type="matrix" values="0 0 0 0 0 0 0 0 0 0 0 0 0 0 0 0 0 0 127 0"/>
<feOffset dy="8"/>
<feGaussianBlur stdDeviation="2"/>
<feColorMatrix type="matrix" values="0 0 0 0 0 0 0 0 0 0 0 0 0 0 0 0 0 0 0.25 0"/>
<feBlend mode="normal" in2="BackgroundImageFix" result="effect1_dropShadow"/>
<feBlend mode="normal" in="SourceGraphic" in2="effect1_dropShadow" result="shape"/>
</filter>
<filter id="filter1_d" x="106.864" y="60.6801" width="136.674" height="21.464" filterUnits="userSpaceOnUse" color-interpolation-filters="sRGB">
<feFlood flood-opacity="0" result="BackgroundImageFix"/>
<feColorMatrix in="SourceAlpha" type="matrix" values="0 0 0 0 0 0 0 0 0 0 0 0 0 0 0 0 0 0 127 0"/>
<feOffset dy="4"/>
<feGaussianBlur stdDeviation="2"/>
<feColorMatrix type="matrix" values="0 0 0 0 0 0 0 0 0 0 0 0 0 0 0 0 0 0 0.25 0"/>
<feBlend mode="normal" in2="BackgroundImageFix" result="effect1_dropShadow"/>
<feBlend mode="normal" in="SourceGraphic" in2="effect1_dropShadow" result="shape"/>
</filter>
<filter id="filter2_d" x="1.23199" y="94.36" width="324.418" height="44.54" filterUnits="userSpaceOnUse" color-interpolation-filters="sRGB">
<feFlood flood-opacity="0" result="BackgroundImageFix"/>
<feColorMatrix in="SourceAlpha" type="matrix" values="0 0 0 0 0 0 0 0 0 0 0 0 0 0 0 0 0 0 127 0"/>
<feOffset dy="4"/>
<feGaussianBlur stdDeviation="2"/>
<feColorMatrix type="matrix" values="0 0 0 0 0 0 0 0 0 0 0 0 0 0 0 0 0 0 0.25 0"/>
<feBlend mode="normal" in2="BackgroundImageFix" result="effect1_dropShadow"/>
<feBlend mode="normal" in="SourceGraphic" in2="effect1_dropShadow" result="shape"/>
</filter>
<linearGradient id="paint0_linear" x1="17.5" y1="-31" x2="195" y2="85" gradientUnits="userSpaceOnUse">
<stop stop-color="#D090F8"/>
<stop offset="1" stop-color="#EED8FC"/>
</linearGradient>
<linearGradient id="paint1_linear" x1="110" y1="54" x2="233.095" y2="101.49" gradientUnits="userSpaceOnUse">
<stop stop-color="#A020F0"/>
<stop offset="1" stop-color="#D090F8" stop-opacity="0.8"/>
<stop offset="1" stop-color="#501078"/>
</linearGradient>
<linearGradient id="paint2_linear" x1="3" y1="81" x2="291.191" y2="221.04" gradientUnits="userSpaceOnUse">
<stop stop-color="#A020F0"/>
<stop offset="1" stop-color="#D090F8" stop-opacity="0.8"/>
<stop offset="1" stop-color="#501078"/>
</linearGradient>
</defs>
</svg>
