<svg width="312" height="99" viewBox="0 0 312 99" fill="none" xmlns="http://www.w3.org/2000/svg">
<rect width="312" height="99" rx="34" fill="#7E6F7D" fill-opacity="0.7"/>
<g filter="url(#filter0_d)">
<path d="M58.852 14.728V40H52.696V24.844L47.044 40H42.076L36.388 24.808V40H30.232V14.728H37.504L44.596 32.224L51.616 14.728H58.852ZM72.4229 40.288C70.4549 40.288 68.6789 39.868 67.0949 39.028C65.5349 38.188 64.2989 36.988 63.3869 35.428C62.4989 33.868 62.0549 32.044 62.0549 29.956C62.0549 27.892 62.5109 26.08 63.4229 24.52C64.3349 22.936 65.5829 21.724 67.1669 20.884C68.7509 20.044 70.5269 19.624 72.4949 19.624C74.4629 19.624 76.2389 20.044 77.8229 20.884C79.4069 21.724 80.6549 22.936 81.5669 24.52C82.4789 26.08 82.9349 27.892 82.9349 29.956C82.9349 32.02 82.4669 33.844 81.5309 35.428C80.6189 36.988 79.3589 38.188 77.7509 39.028C76.1669 39.868 74.3909 40.288 72.4229 40.288ZM72.4229 34.96C73.5989 34.96 74.5949 34.528 75.4109 33.664C76.2509 32.8 76.6709 31.564 76.6709 29.956C76.6709 28.348 76.2629 27.112 75.4469 26.248C74.6549 25.384 73.6709 24.952 72.4949 24.952C71.2949 24.952 70.2989 25.384 69.5069 26.248C68.7149 27.088 68.3189 28.324 68.3189 29.956C68.3189 31.564 68.7029 32.8 69.4709 33.664C70.2629 34.528 71.2469 34.96 72.4229 34.96ZM84.9768 29.92C84.9768 27.856 85.3608 26.044 86.1288 24.484C86.9208 22.924 87.9888 21.724 89.3328 20.884C90.6768 20.044 92.1768 19.624 93.8328 19.624C95.1528 19.624 96.3528 19.9 97.4328 20.452C98.5368 21.004 99.4008 21.748 100.025 22.684V13.36H106.181V40H100.025V37.12C99.4488 38.08 98.6208 38.848 97.5408 39.424C96.4848 40 95.2488 40.288 93.8328 40.288C92.1768 40.288 90.6768 39.868 89.3328 39.028C87.9888 38.164 86.9208 36.952 86.1288 35.392C85.3608 33.808 84.9768 31.984 84.9768 29.92ZM100.025 29.956C100.025 28.42 99.5928 27.208 98.7288 26.32C97.8888 25.432 96.8568 24.988 95.6328 24.988C94.4088 24.988 93.3648 25.432 92.5008 26.32C91.6608 27.184 91.2408 28.384 91.2408 29.92C91.2408 31.456 91.6608 32.68 92.5008 33.592C93.3648 34.48 94.4088 34.924 95.6328 34.924C96.8568 34.924 97.8888 34.48 98.7288 33.592C99.5928 32.704 100.025 31.492 100.025 29.956ZM129.57 29.632C129.57 30.208 129.534 30.808 129.462 31.432H115.53C115.626 32.68 116.022 33.64 116.718 34.312C117.438 34.96 118.314 35.284 119.346 35.284C120.882 35.284 121.95 34.636 122.55 33.34H129.102C128.766 34.66 128.154 35.848 127.266 36.904C126.402 37.96 125.31 38.788 123.99 39.388C122.67 39.988 121.194 40.288 119.562 40.288C117.594 40.288 115.842 39.868 114.306 39.028C112.77 38.188 111.57 36.988 110.706 35.428C109.842 33.868 109.41 32.044 109.41 29.956C109.41 27.868 109.83 26.044 110.67 24.484C111.534 22.924 112.734 21.724 114.27 20.884C115.806 20.044 117.57 19.624 119.562 19.624C121.506 19.624 123.234 20.032 124.746 20.848C126.258 21.664 127.434 22.828 128.274 24.34C129.138 25.852 129.57 27.616 129.57 29.632ZM123.27 28.012C123.27 26.956 122.91 26.116 122.19 25.492C121.47 24.868 120.57 24.556 119.49 24.556C118.458 24.556 117.582 24.856 116.862 25.456C116.166 26.056 115.734 26.908 115.566 28.012H123.27ZM138.974 13.36V40H132.818V13.36H138.974ZM152.579 40.288C150.611 40.288 148.835 39.868 147.251 39.028C145.691 38.188 144.455 36.988 143.543 35.428C142.655 33.868 142.211 32.044 142.211 29.956C142.211 27.892 142.667 26.08 143.579 24.52C144.491 22.936 145.739 21.724 147.323 20.884C148.907 20.044 150.683 19.624 152.651 19.624C154.619 19.624 156.395 20.044 157.979 20.884C159.563 21.724 160.811 22.936 161.723 24.52C162.635 26.08 163.091 27.892 163.091 29.956C163.091 32.02 162.623 33.844 161.687 35.428C160.775 36.988 159.515 38.188 157.907 39.028C156.323 39.868 154.547 40.288 152.579 40.288ZM152.579 34.96C153.755 34.96 154.751 34.528 155.567 33.664C156.407 32.8 156.827 31.564 156.827 29.956C156.827 28.348 156.419 27.112 155.603 26.248C154.811 25.384 153.827 24.952 152.651 24.952C151.451 24.952 150.455 25.384 149.663 26.248C148.871 27.088 148.475 28.324 148.475 29.956C148.475 31.564 148.859 32.8 149.627 33.664C150.419 34.528 151.403 34.96 152.579 34.96ZM174.529 40.288C172.777 40.288 171.217 39.988 169.849 39.388C168.481 38.788 167.401 37.972 166.609 36.94C165.817 35.884 165.373 34.708 165.277 33.412H171.361C171.433 34.108 171.757 34.672 172.333 35.104C172.909 35.536 173.617 35.752 174.457 35.752C175.225 35.752 175.813 35.608 176.221 35.32C176.653 35.008 176.869 34.612 176.869 34.132C176.869 33.556 176.569 33.136 175.969 32.872C175.369 32.584 174.397 32.272 173.053 31.936C171.613 31.6 170.413 31.252 169.453 30.892C168.493 30.508 167.665 29.92 166.969 29.128C166.273 28.312 165.925 27.22 165.925 25.852C165.925 24.7 166.237 23.656 166.861 22.72C167.509 21.76 168.445 21.004 169.669 20.452C170.917 19.9 172.393 19.624 174.097 19.624C176.617 19.624 178.597 20.248 180.037 21.496C181.501 22.744 182.341 24.4 182.557 26.464H176.869C176.773 25.768 176.461 25.216 175.933 24.808C175.429 24.4 174.757 24.196 173.917 24.196C173.197 24.196 172.645 24.34 172.261 24.628C171.877 24.892 171.685 25.264 171.685 25.744C171.685 26.32 171.985 26.752 172.585 27.04C173.209 27.328 174.169 27.616 175.465 27.904C176.953 28.288 178.165 28.672 179.101 29.056C180.037 29.416 180.853 30.016 181.549 30.856C182.269 31.672 182.641 32.776 182.665 34.168C182.665 35.344 182.329 36.4 181.657 37.336C181.009 38.248 180.061 38.968 178.813 39.496C177.589 40.024 176.161 40.288 174.529 40.288Z" fill="white"/>
<path d="M58.852 14.728V40H52.696V24.844L47.044 40H42.076L36.388 24.808V40H30.232V14.728H37.504L44.596 32.224L51.616 14.728H58.852ZM72.4229 40.288C70.4549 40.288 68.6789 39.868 67.0949 39.028C65.5349 38.188 64.2989 36.988 63.3869 35.428C62.4989 33.868 62.0549 32.044 62.0549 29.956C62.0549 27.892 62.5109 26.08 63.4229 24.52C64.3349 22.936 65.5829 21.724 67.1669 20.884C68.7509 20.044 70.5269 19.624 72.4949 19.624C74.4629 19.624 76.2389 20.044 77.8229 20.884C79.4069 21.724 80.6549 22.936 81.5669 24.52C82.4789 26.08 82.9349 27.892 82.9349 29.956C82.9349 32.02 82.4669 33.844 81.5309 35.428C80.6189 36.988 79.3589 38.188 77.7509 39.028C76.1669 39.868 74.3909 40.288 72.4229 40.288ZM72.4229 34.96C73.5989 34.96 74.5949 34.528 75.4109 33.664C76.2509 32.8 76.6709 31.564 76.6709 29.956C76.6709 28.348 76.2629 27.112 75.4469 26.248C74.6549 25.384 73.6709 24.952 72.4949 24.952C71.2949 24.952 70.2989 25.384 69.5069 26.248C68.7149 27.088 68.3189 28.324 68.3189 29.956C68.3189 31.564 68.7029 32.8 69.4709 33.664C70.2629 34.528 71.2469 34.96 72.4229 34.96ZM84.9768 29.92C84.9768 27.856 85.3608 26.044 86.1288 24.484C86.9208 22.924 87.9888 21.724 89.3328 20.884C90.6768 20.044 92.1768 19.624 93.8328 19.624C95.1528 19.624 96.3528 19.9 97.4328 20.452C98.5368 21.004 99.4008 21.748 100.025 22.684V13.36H106.181V40H100.025V37.12C99.4488 38.08 98.6208 38.848 97.5408 39.424C96.4848 40 95.2488 40.288 93.8328 40.288C92.1768 40.288 90.6768 39.868 89.3328 39.028C87.9888 38.164 86.9208 36.952 86.1288 35.392C85.3608 33.808 84.9768 31.984 84.9768 29.92ZM100.025 29.956C100.025 28.42 99.5928 27.208 98.7288 26.32C97.8888 25.432 96.8568 24.988 95.6328 24.988C94.4088 24.988 93.3648 25.432 92.5008 26.32C91.6608 27.184 91.2408 28.384 91.2408 29.92C91.2408 31.456 91.6608 32.68 92.5008 33.592C93.3648 34.48 94.4088 34.924 95.6328 34.924C96.8568 34.924 97.8888 34.48 98.7288 33.592C99.5928 32.704 100.025 31.492 100.025 29.956ZM129.57 29.632C129.57 30.208 129.534 30.808 129.462 31.432H115.53C115.626 32.68 116.022 33.64 116.718 34.312C117.438 34.96 118.314 35.284 119.346 35.284C120.882 35.284 121.95 34.636 122.55 33.34H129.102C128.766 34.66 128.154 35.848 127.266 36.904C126.402 37.96 125.31 38.788 123.99 39.388C122.67 39.988 121.194 40.288 119.562 40.288C117.594 40.288 115.842 39.868 114.306 39.028C112.77 38.188 111.57 36.988 110.706 35.428C109.842 33.868 109.41 32.044 109.41 29.956C109.41 27.868 109.83 26.044 110.67 24.484C111.534 22.924 112.734 21.724 114.27 20.884C115.806 20.044 117.57 19.624 119.562 19.624C121.506 19.624 123.234 20.032 124.746 20.848C126.258 21.664 127.434 22.828 128.274 24.34C129.138 25.852 129.57 27.616 129.57 29.632ZM123.27 28.012C123.27 26.956 122.91 26.116 122.19 25.492C121.47 24.868 120.57 24.556 119.49 24.556C118.458 24.556 117.582 24.856 116.862 25.456C116.166 26.056 115.734 26.908 115.566 28.012H123.27ZM138.974 13.36V40H132.818V13.36H138.974ZM152.579 40.288C150.611 40.288 148.835 39.868 147.251 39.028C145.691 38.188 144.455 36.988 143.543 35.428C142.655 33.868 142.211 32.044 142.211 29.956C142.211 27.892 142.667 26.08 143.579 24.52C144.491 22.936 145.739 21.724 147.323 20.884C148.907 20.044 150.683 19.624 152.651 19.624C154.619 19.624 156.395 20.044 157.979 20.884C159.563 21.724 160.811 22.936 161.723 24.52C162.635 26.08 163.091 27.892 163.091 29.956C163.091 32.02 162.623 33.844 161.687 35.428C160.775 36.988 159.515 38.188 157.907 39.028C156.323 39.868 154.547 40.288 152.579 40.288ZM152.579 34.96C153.755 34.96 154.751 34.528 155.567 33.664C156.407 32.8 156.827 31.564 156.827 29.956C156.827 28.348 156.419 27.112 155.603 26.248C154.811 25.384 153.827 24.952 152.651 24.952C151.451 24.952 150.455 25.384 149.663 26.248C148.871 27.088 148.475 28.324 148.475 29.956C148.475 31.564 148.859 32.8 149.627 33.664C150.419 34.528 151.403 34.96 152.579 34.96ZM174.529 40.288C172.777 40.288 171.217 39.988 169.849 39.388C168.481 38.788 167.401 37.972 166.609 36.94C165.817 35.884 165.373 34.708 165.277 33.412H171.361C171.433 34.108 171.757 34.672 172.333 35.104C172.909 35.536 173.617 35.752 174.457 35.752C175.225 35.752 175.813 35.608 176.221 35.32C176.653 35.008 176.869 34.612 176.869 34.132C176.869 33.556 176.569 33.136 175.969 32.872C175.369 32.584 174.397 32.272 173.053 31.936C171.613 31.6 170.413 31.252 169.453 30.892C168.493 30.508 167.665 29.92 166.969 29.128C166.273 28.312 165.925 27.22 165.925 25.852C165.925 24.7 166.237 23.656 166.861 22.72C167.509 21.76 168.445 21.004 169.669 20.452C170.917 19.9 172.393 19.624 174.097 19.624C176.617 19.624 178.597 20.248 180.037 21.496C181.501 22.744 182.341 24.4 182.557 26.464H176.869C176.773 25.768 176.461 25.216 175.933 24.808C175.429 24.4 174.757 24.196 173.917 24.196C173.197 24.196 172.645 24.34 172.261 24.628C171.877 24.892 171.685 25.264 171.685 25.744C171.685 26.32 171.985 26.752 172.585 27.04C173.209 27.328 174.169 27.616 175.465 27.904C176.953 28.288 178.165 28.672 179.101 29.056C180.037 29.416 180.853 30.016 181.549 30.856C182.269 31.672 182.641 32.776 182.665 34.168C182.665 35.344 182.329 36.4 181.657 37.336C181.009 38.248 180.061 38.968 178.813 39.496C177.589 40.024 176.161 40.288 174.529 40.288Z" fill="url(#paint0_linear)" fill-opacity="0.4"/>
</g>
<g filter="url(#filter1_d)">
<path d="M131.956 59.728L122.992 85H115.288L106.324 59.728H112.876L119.14 78.808L125.44 59.728H131.956ZM133.305 74.92C133.305 72.856 133.689 71.044 134.457 69.484C135.249 67.924 136.317 66.724 137.661 65.884C139.005 65.044 140.505 64.624 142.161 64.624C143.577 64.624 144.813 64.912 145.869 65.488C146.949 66.064 147.777 66.82 148.353 67.756V64.912H154.509V85H148.353V82.156C147.753 83.092 146.913 83.848 145.833 84.424C144.777 85 143.541 85.288 142.125 85.288C140.493 85.288 139.005 84.868 137.661 84.028C136.317 83.164 135.249 81.952 134.457 80.392C133.689 78.808 133.305 76.984 133.305 74.92ZM148.353 74.956C148.353 73.42 147.921 72.208 147.057 71.32C146.217 70.432 145.185 69.988 143.961 69.988C142.737 69.988 141.693 70.432 140.829 71.32C139.989 72.184 139.569 73.384 139.569 74.92C139.569 76.456 139.989 77.68 140.829 78.592C141.693 79.48 142.737 79.924 143.961 79.924C145.185 79.924 146.217 79.48 147.057 78.592C147.921 77.704 148.353 76.492 148.353 74.956ZM165.118 68.26C165.838 67.156 166.738 66.292 167.818 65.668C168.898 65.02 170.098 64.696 171.418 64.696V71.212H169.726C168.19 71.212 167.038 71.548 166.27 72.22C165.502 72.868 165.118 74.02 165.118 75.676V85H158.962V64.912H165.118V68.26ZM177.457 62.824C176.377 62.824 175.489 62.512 174.793 61.888C174.121 61.24 173.785 60.448 173.785 59.512C173.785 58.552 174.121 57.76 174.793 57.136C175.489 56.488 176.377 56.164 177.457 56.164C178.513 56.164 179.377 56.488 180.049 57.136C180.745 57.76 181.093 58.552 181.093 59.512C181.093 60.448 180.745 61.24 180.049 61.888C179.377 62.512 178.513 62.824 177.457 62.824ZM180.517 64.912V85H174.361V64.912H180.517ZM183.754 74.92C183.754 72.856 184.138 71.044 184.906 69.484C185.698 67.924 186.766 66.724 188.11 65.884C189.454 65.044 190.954 64.624 192.61 64.624C194.026 64.624 195.262 64.912 196.318 65.488C197.398 66.064 198.226 66.82 198.802 67.756V64.912H204.958V85H198.802V82.156C198.202 83.092 197.362 83.848 196.282 84.424C195.226 85 193.99 85.288 192.574 85.288C190.942 85.288 189.454 84.868 188.11 84.028C186.766 83.164 185.698 81.952 184.906 80.392C184.138 78.808 183.754 76.984 183.754 74.92ZM198.802 74.956C198.802 73.42 198.37 72.208 197.506 71.32C196.666 70.432 195.634 69.988 194.41 69.988C193.186 69.988 192.142 70.432 191.278 71.32C190.438 72.184 190.018 73.384 190.018 74.92C190.018 76.456 190.438 77.68 191.278 78.592C192.142 79.48 193.186 79.924 194.41 79.924C195.634 79.924 196.666 79.48 197.506 78.592C198.37 77.704 198.802 76.492 198.802 74.956ZM208.188 74.92C208.188 72.856 208.572 71.044 209.34 69.484C210.132 67.924 211.2 66.724 212.544 65.884C213.888 65.044 215.388 64.624 217.044 64.624C218.364 64.624 219.564 64.9 220.644 65.452C221.748 66.004 222.612 66.748 223.236 67.684V58.36H229.392V85H223.236V82.12C222.66 83.08 221.832 83.848 220.752 84.424C219.696 85 218.46 85.288 217.044 85.288C215.388 85.288 213.888 84.868 212.544 84.028C211.2 83.164 210.132 81.952 209.34 80.392C208.572 78.808 208.188 76.984 208.188 74.92ZM223.236 74.956C223.236 73.42 222.804 72.208 221.94 71.32C221.1 70.432 220.068 69.988 218.844 69.988C217.62 69.988 216.576 70.432 215.712 71.32C214.872 72.184 214.452 73.384 214.452 74.92C214.452 76.456 214.872 77.68 215.712 78.592C216.576 79.48 217.62 79.924 218.844 79.924C220.068 79.924 221.1 79.48 221.94 78.592C222.804 77.704 223.236 76.492 223.236 74.956ZM242.989 85.288C241.021 85.288 239.245 84.868 237.661 84.028C236.101 83.188 234.865 81.988 233.953 80.428C233.065 78.868 232.621 77.044 232.621 74.956C232.621 72.892 233.077 71.08 233.989 69.52C234.901 67.936 236.149 66.724 237.733 65.884C239.317 65.044 241.093 64.624 243.061 64.624C245.029 64.624 246.805 65.044 248.389 65.884C249.973 66.724 251.221 67.936 252.133 69.52C253.045 71.08 253.501 72.892 253.501 74.956C253.501 77.02 253.033 78.844 252.097 80.428C251.185 81.988 249.925 83.188 248.317 84.028C246.733 84.868 244.957 85.288 242.989 85.288ZM242.989 79.96C244.165 79.96 245.161 79.528 245.977 78.664C246.817 77.8 247.237 76.564 247.237 74.956C247.237 73.348 246.829 72.112 246.013 71.248C245.221 70.384 244.237 69.952 243.061 69.952C241.861 69.952 240.865 70.384 240.073 71.248C239.281 72.088 238.885 73.324 238.885 74.956C238.885 76.564 239.269 77.8 240.037 78.664C240.829 79.528 241.813 79.96 242.989 79.96ZM264.939 85.288C263.187 85.288 261.627 84.988 260.259 84.388C258.891 83.788 257.811 82.972 257.019 81.94C256.227 80.884 255.783 79.708 255.687 78.412H261.771C261.843 79.108 262.167 79.672 262.743 80.104C263.319 80.536 264.027 80.752 264.867 80.752C265.635 80.752 266.223 80.608 266.631 80.32C267.063 80.008 267.279 79.612 267.279 79.132C267.279 78.556 266.979 78.136 266.379 77.872C265.779 77.584 264.807 77.272 263.463 76.936C262.023 76.6 260.823 76.252 259.863 75.892C258.903 75.508 258.075 74.92 257.379 74.128C256.683 73.312 256.335 72.22 256.335 70.852C256.335 69.7 256.647 68.656 257.271 67.72C257.919 66.76 258.855 66.004 260.079 65.452C261.327 64.9 262.803 64.624 264.507 64.624C267.027 64.624 269.007 65.248 270.447 66.496C271.911 67.744 272.751 69.4 272.967 71.464H267.279C267.183 70.768 266.871 70.216 266.343 69.808C265.839 69.4 265.167 69.196 264.327 69.196C263.607 69.196 263.055 69.34 262.671 69.628C262.287 69.892 262.095 70.264 262.095 70.744C262.095 71.32 262.395 71.752 262.995 72.04C263.619 72.328 264.579 72.616 265.875 72.904C267.363 73.288 268.575 73.672 269.511 74.056C270.447 74.416 271.263 75.016 271.959 75.856C272.679 76.672 273.051 77.776 273.075 79.168C273.075 80.344 272.739 81.4 272.067 82.336C271.419 83.248 270.471 83.968 269.223 84.496C267.999 85.024 266.571 85.288 264.939 85.288Z" fill="white"/>
<path d="M131.956 59.728L122.992 85H115.288L106.324 59.728H112.876L119.14 78.808L125.44 59.728H131.956ZM133.305 74.92C133.305 72.856 133.689 71.044 134.457 69.484C135.249 67.924 136.317 66.724 137.661 65.884C139.005 65.044 140.505 64.624 142.161 64.624C143.577 64.624 144.813 64.912 145.869 65.488C146.949 66.064 147.777 66.82 148.353 67.756V64.912H154.509V85H148.353V82.156C147.753 83.092 146.913 83.848 145.833 84.424C144.777 85 143.541 85.288 142.125 85.288C140.493 85.288 139.005 84.868 137.661 84.028C136.317 83.164 135.249 81.952 134.457 80.392C133.689 78.808 133.305 76.984 133.305 74.92ZM148.353 74.956C148.353 73.42 147.921 72.208 147.057 71.32C146.217 70.432 145.185 69.988 143.961 69.988C142.737 69.988 141.693 70.432 140.829 71.32C139.989 72.184 139.569 73.384 139.569 74.92C139.569 76.456 139.989 77.68 140.829 78.592C141.693 79.48 142.737 79.924 143.961 79.924C145.185 79.924 146.217 79.48 147.057 78.592C147.921 77.704 148.353 76.492 148.353 74.956ZM165.118 68.26C165.838 67.156 166.738 66.292 167.818 65.668C168.898 65.02 170.098 64.696 171.418 64.696V71.212H169.726C168.19 71.212 167.038 71.548 166.27 72.22C165.502 72.868 165.118 74.02 165.118 75.676V85H158.962V64.912H165.118V68.26ZM177.457 62.824C176.377 62.824 175.489 62.512 174.793 61.888C174.121 61.24 173.785 60.448 173.785 59.512C173.785 58.552 174.121 57.76 174.793 57.136C175.489 56.488 176.377 56.164 177.457 56.164C178.513 56.164 179.377 56.488 180.049 57.136C180.745 57.76 181.093 58.552 181.093 59.512C181.093 60.448 180.745 61.24 180.049 61.888C179.377 62.512 178.513 62.824 177.457 62.824ZM180.517 64.912V85H174.361V64.912H180.517ZM183.754 74.92C183.754 72.856 184.138 71.044 184.906 69.484C185.698 67.924 186.766 66.724 188.11 65.884C189.454 65.044 190.954 64.624 192.61 64.624C194.026 64.624 195.262 64.912 196.318 65.488C197.398 66.064 198.226 66.82 198.802 67.756V64.912H204.958V85H198.802V82.156C198.202 83.092 197.362 83.848 196.282 84.424C195.226 85 193.99 85.288 192.574 85.288C190.942 85.288 189.454 84.868 188.11 84.028C186.766 83.164 185.698 81.952 184.906 80.392C184.138 78.808 183.754 76.984 183.754 74.92ZM198.802 74.956C198.802 73.42 198.37 72.208 197.506 71.32C196.666 70.432 195.634 69.988 194.41 69.988C193.186 69.988 192.142 70.432 191.278 71.32C190.438 72.184 190.018 73.384 190.018 74.92C190.018 76.456 190.438 77.68 191.278 78.592C192.142 79.48 193.186 79.924 194.41 79.924C195.634 79.924 196.666 79.48 197.506 78.592C198.37 77.704 198.802 76.492 198.802 74.956ZM208.188 74.92C208.188 72.856 208.572 71.044 209.34 69.484C210.132 67.924 211.2 66.724 212.544 65.884C213.888 65.044 215.388 64.624 217.044 64.624C218.364 64.624 219.564 64.9 220.644 65.452C221.748 66.004 222.612 66.748 223.236 67.684V58.36H229.392V85H223.236V82.12C222.66 83.08 221.832 83.848 220.752 84.424C219.696 85 218.46 85.288 217.044 85.288C215.388 85.288 213.888 84.868 212.544 84.028C211.2 83.164 210.132 81.952 209.34 80.392C208.572 78.808 208.188 76.984 208.188 74.92ZM223.236 74.956C223.236 73.42 222.804 72.208 221.94 71.32C221.1 70.432 220.068 69.988 218.844 69.988C217.62 69.988 216.576 70.432 215.712 71.32C214.872 72.184 214.452 73.384 214.452 74.92C214.452 76.456 214.872 77.68 215.712 78.592C216.576 79.48 217.62 79.924 218.844 79.924C220.068 79.924 221.1 79.48 221.94 78.592C222.804 77.704 223.236 76.492 223.236 74.956ZM242.989 85.288C241.021 85.288 239.245 84.868 237.661 84.028C236.101 83.188 234.865 81.988 233.953 80.428C233.065 78.868 232.621 77.044 232.621 74.956C232.621 72.892 233.077 71.08 233.989 69.52C234.901 67.936 236.149 66.724 237.733 65.884C239.317 65.044 241.093 64.624 243.061 64.624C245.029 64.624 246.805 65.044 248.389 65.884C249.973 66.724 251.221 67.936 252.133 69.52C253.045 71.08 253.501 72.892 253.501 74.956C253.501 77.02 253.033 78.844 252.097 80.428C251.185 81.988 249.925 83.188 248.317 84.028C246.733 84.868 244.957 85.288 242.989 85.288ZM242.989 79.96C244.165 79.96 245.161 79.528 245.977 78.664C246.817 77.8 247.237 76.564 247.237 74.956C247.237 73.348 246.829 72.112 246.013 71.248C245.221 70.384 244.237 69.952 243.061 69.952C241.861 69.952 240.865 70.384 240.073 71.248C239.281 72.088 238.885 73.324 238.885 74.956C238.885 76.564 239.269 77.8 240.037 78.664C240.829 79.528 241.813 79.96 242.989 79.96ZM264.939 85.288C263.187 85.288 261.627 84.988 260.259 84.388C258.891 83.788 257.811 82.972 257.019 81.94C256.227 80.884 255.783 79.708 255.687 78.412H261.771C261.843 79.108 262.167 79.672 262.743 80.104C263.319 80.536 264.027 80.752 264.867 80.752C265.635 80.752 266.223 80.608 266.631 80.32C267.063 80.008 267.279 79.612 267.279 79.132C267.279 78.556 266.979 78.136 266.379 77.872C265.779 77.584 264.807 77.272 263.463 76.936C262.023 76.6 260.823 76.252 259.863 75.892C258.903 75.508 258.075 74.92 257.379 74.128C256.683 73.312 256.335 72.22 256.335 70.852C256.335 69.7 256.647 68.656 257.271 67.72C257.919 66.76 258.855 66.004 260.079 65.452C261.327 64.9 262.803 64.624 264.507 64.624C267.027 64.624 269.007 65.248 270.447 66.496C271.911 67.744 272.751 69.4 272.967 71.464H267.279C267.183 70.768 266.871 70.216 266.343 69.808C265.839 69.4 265.167 69.196 264.327 69.196C263.607 69.196 263.055 69.34 262.671 69.628C262.287 69.892 262.095 70.264 262.095 70.744C262.095 71.32 262.395 71.752 262.995 72.04C263.619 72.328 264.579 72.616 265.875 72.904C267.363 73.288 268.575 73.672 269.511 74.056C270.447 74.416 271.263 75.016 271.959 75.856C272.679 76.672 273.051 77.776 273.075 79.168C273.075 80.344 272.739 81.4 272.067 82.336C271.419 83.248 270.471 83.968 269.223 84.496C267.999 85.024 266.571 85.288 264.939 85.288Z" fill="url(#paint1_linear)" fill-opacity="0.4"/>
</g>
<defs>
<filter id="filter0_d" x="26.2319" y="13.3601" width="160.433" height="38.928" filterUnits="userSpaceOnUse" color-interpolation-filters="sRGB">
<feFlood flood-opacity="0" result="BackgroundImageFix"/>
<feColorMatrix in="SourceAlpha" type="matrix" values="0 0 0 0 0 0 0 0 0 0 0 0 0 0 0 0 0 0 127 0" result="hardAlpha"/>
<feOffset dy="8"/>
<feGaussianBlur stdDeviation="2"/>
<feColorMatrix type="matrix" values="0 0 0 0 0 0 0 0 0 0 0 0 0 0 0 0 0 0 0.25 0"/>
<feBlend mode="normal" in2="BackgroundImageFix" result="effect1_dropShadow"/>
<feBlend mode="normal" in="SourceGraphic" in2="effect1_dropShadow" result="shape"/>
</filter>
<filter id="filter1_d" x="102.324" y="56.1641" width="174.751" height="41.124" filterUnits="userSpaceOnUse" color-interpolation-filters="sRGB">
<feFlood flood-opacity="0" result="BackgroundImageFix"/>
<feColorMatrix in="SourceAlpha" type="matrix" values="0 0 0 0 0 0 0 0 0 0 0 0 0 0 0 0 0 0 127 0" result="hardAlpha"/>
<feOffset dy="8"/>
<feGaussianBlur stdDeviation="2"/>
<feColorMatrix type="matrix" values="0 0 0 0 0 0 0 0 0 0 0 0 0 0 0 0 0 0 0.25 0"/>
<feBlend mode="normal" in2="BackgroundImageFix" result="effect1_dropShadow"/>
<feBlend mode="normal" in="SourceGraphic" in2="effect1_dropShadow" result="shape"/>
</filter>
<linearGradient id="paint0_linear" x1="28" y1="0" x2="263.489" y2="85.6493" gradientUnits="userSpaceOnUse">
<stop stop-color="#A020F0"/>
<stop offset="1" stop-color="#D090F8" stop-opacity="0.8"/>
<stop offset="1" stop-color="#501078"/>
</linearGradient>
<linearGradient id="paint1_linear" x1="106" y1="45" x2="285.801" y2="92.127" gradientUnits="userSpaceOnUse">
<stop stop-color="#A020F0"/>
<stop offset="1" stop-color="#D090F8" stop-opacity="0.8"/>
<stop offset="1" stop-color="#501078"/>
</linearGradient>
</defs>
</svg>
